<mxfile host="app.diagrams.net" agent="Mozilla/5.0 (Windows NT 10.0; Win64; x64) AppleWebKit/537.36 (KHTML, like Gecko) Chrome/132.0.0.0 Safari/537.36" version="26.0.11">
  <diagram name="Page-1" id="XTUQZC-WxKj29JYLYfyG">
    <mxGraphModel dx="1434" dy="444" grid="0" gridSize="10" guides="1" tooltips="1" connect="1" arrows="1" fold="1" page="0" pageScale="1" pageWidth="850" pageHeight="1100" math="0" shadow="0">
      <root>
        <mxCell id="0" />
        <mxCell id="1" parent="0" />
        <mxCell id="db1EEsWRSnI7m_Rw6AXZ-6" style="edgeStyle=orthogonalEdgeStyle;rounded=0;orthogonalLoop=1;jettySize=auto;html=1;" edge="1" parent="1" source="db1EEsWRSnI7m_Rw6AXZ-1">
          <mxGeometry relative="1" as="geometry">
            <mxPoint x="150" y="130" as="targetPoint" />
          </mxGeometry>
        </mxCell>
        <mxCell id="db1EEsWRSnI7m_Rw6AXZ-1" value="" style="sketch=0;outlineConnect=0;fontColor=#232F3E;gradientColor=none;fillColor=#232F3D;strokeColor=none;dashed=0;verticalLabelPosition=bottom;verticalAlign=top;align=center;html=1;fontSize=12;fontStyle=0;aspect=fixed;pointerEvents=1;shape=mxgraph.aws4.user;" vertex="1" parent="1">
          <mxGeometry x="-50" y="99" width="62" height="62" as="geometry" />
        </mxCell>
        <mxCell id="db1EEsWRSnI7m_Rw6AXZ-2" value="" style="dashed=0;outlineConnect=0;html=1;align=center;labelPosition=center;verticalLabelPosition=bottom;verticalAlign=top;shape=mxgraph.weblogos.whatsapp;fillColor=#00E676;strokeColor=#dddddd" vertex="1" parent="1">
          <mxGeometry x="-9" y="147" width="38" height="38" as="geometry" />
        </mxCell>
        <mxCell id="db1EEsWRSnI7m_Rw6AXZ-4" value="" style="shape=image;verticalLabelPosition=bottom;labelBackgroundColor=default;verticalAlign=top;aspect=fixed;imageAspect=0;image=data:image/jpeg,/9j/4AAQSkZJRgABAQAAAQABAAD/4QAqRXhpZgAASUkqAAgAAAABADEBAgAHAAAAGgAAAAAAAABQaWNhc2EAAP/bAIQAAwICCAgICAgICAgICAgICAgICAgICAcHBggICAgICAgICAgICAgICAgICAgICggICAgJCQkICAsNCggNCAgJCAEDBAQGBQYKBgYKCgoKCgoICgoKCggICgoQCAgICAoKCgoKCAgICAgLCggICAgKCAgICAgICAoICAgICAgICAoI/8AAEQgDhAOEAwEiAAIRAQMRAf/EAB0AAQACAgMBAQAAAAAAAAAAAAAICQYHAQIEBQP/xABZEAACAgIAAwYDBAUGCAgMBgMAAQIDBBEFEiEGBwgTMUEiUWEUIzJxFUJSgZEJJDNTYnI0Q0RzgpKhsRhUg5O1wcLUJTZFY2SUlaKjsuHxJjVVhLPwFmV0/8QAHAEBAAIDAQEBAAAAAAAAAAAAAAUGBAcIAwIB/8QAVBEAAgECAwMHCAUIBwQJBQEAAAECAxEEBSESMUEGE1FhcYGRByIyobHB0eEjQmJy8BQVM0NSgpKiU2Nzk6Oy8SSDs8IXNFRklLTD0tMlRHTE1Bb/2gAMAwEAAhEDEQA/ALUwAAAAAAAAAAAAAAAAAAAAAAAAAAAAAAAAAAAAAAAAAAAAAAAAAAAAAAAAAAAAAAAAAAAAAAAAAAAAAAAAAAAAAAAAAAAAAAAAAAAAAAAAAAAAAAAAAAAAAAAAAAAAAAAAAAAAAAAAAAAAAAAAAAAAAAAAAAAAAAAAAAAAAAAAAAAAAAAAAAAAAAAAAAAAAAAAAAAAAAAAAAAAAAAAAAAAAAAAAAAAAAAAAAAAAAAAAAAAAAAAAAAAAAAAAAAAAAAAAAAAAAAAAAAAAAAAAAAAAAAAAAAAAAAAAAAAAAAAAAAAAAAAAAAAAAAAAAAAAAAAAAAAAAAAAAAAAAAAAAAAAAAAAAAAAAAAAAAAAAAAAAAAAAAAAAAAAAAAAAAAAAAAAAAAAAAAAAAAAAAAAAAAAAAAAAAAAAAAAAAAAAAAAAAAAAAAAAAAAAAAAAAAAAAAAAAAAAAAAAAAAAAAAAAAAAAAAAAAAAAAAAAAAAAAAAAAAAAAAAAAAAAAAAAAAAAAAAAAAAAAAAAAAAAAAAAAAAAAAAAAAAAAAAAAAAAAAAAAAAAAAAAAAAAAAAAAAAAAAAAAAAAAAAAAAAAAAAAAAAAAAAAAAAAAAAAAAAAAAAAAAAAAAAAAAAAAAAAAAAAAAAAAAAAAAAAAAAAAAAAAAAAAAAAAAAAAAAAAAAAAAAAAAAAAAAAAAAAAAAAAAAAAAAAAAAAAAAAAAAAAAAAAAAAAAAAAAAAAAAAAAAAAAAAAAAAAAAAAAAAAAAAAAAAAAAAAAAAAAAAAAAAAAAAAAAAAAAAAAAAAAAAAAAAAAAAAAAAAAAAAAAAAAAAAAAAAAAAAAAAAAAAAAAAAAAAAAAAAAAAAAAAAAAAAAAAAAAAAAAAAAAAAAAAAAAAAAAAAAAAAAAAAAAAAAAAAAAAAAAAAAAAAAAAAAAAAAAAAAAAAAAAAAAAAAAAAAAAAAAAAAAAAAAAAAAAAAAAAAAAAAAAAAAAAAAAAAAAAAAAAAAAAAAAAAAAAAAAAAAAAAAAAAAAAAAAAAAAAAAAAAAAAAAAAAAAAAAAAAAAAAAAAAAAAAAAAAAAAAAAAAAAAAAAAAAAAAAAAAAAAAAAAAAAAAAAAAAAAAAAAAAAAAAAAAAAAAAAAAAAAAAAAAAAAAAAAAAAAAAAAAAAAAAAAAAAAAAAAAAAAAAAAAAAAAAAAAAAAAAAAAAAAAAAAAAAAAAAAAAAAAAAAAAAAAAAAAAAAAAAAAAAAAAAAAAAAAAAAAAAAAAAAAAAAAAAAAAAAAAAAAAAAAAAAAAAAAAAAAAAAAAAAAAAAAAAAAAAAAAAAAAAAAAAAAAAAAAAAAAAAAAAAAAAAAAAAAAAAAAAAAAAAAAAAAAAAAAAAAAAAAAAAAAAAAAAAAAAAAAAAAAAAAAAAAAAAAAAAAAAAAAAAAAAAAAAAAAAAAAAAAAAAAAAAAAAAAAAAAAAAAAAAAAAAAAAAAAAAAAAAAAAAAAAAAAAAAAAAAAAAAAAAAAAAAAAAAAAAAAAAAAAAAAAAAAAAAAAAAAAAAAAAAAAAAAAAAAAAAAAAAAAAAAAAAAAAAAAAAAAAAAAAAAAAAAAAAAAAAAAAAAAAAAAAeLi3G6ceErb7qqK4LmlZdZCquCXq5Tm4xSXzb0aq7SeLfgGMn/P68l71rDjLL2/79SlDX9rm19TzlUjD0ml2tElhMtxeMdsNRqVOHmU5y163FNLvNxAiD2m/lB61tYXC7LPbny8iGN1+arphlOUX/anW/ojXXH/HLxq1/cxw8WL9VGqd81/dnZNR3+db/Iw5Y6iuN+xP32Rd8L5Pc6r2cqcKSfGpVh6403Umu+KLAzpbcorcmkvm2kv4sq2473+ccyd+bxbN036UW/Ykvp/M1Q2v7ze/fZiOV2gybN+Zk5Nu/Xzcm+3f5+ZZLZjSzKPCL72l8S10PJViGvpsTTi+KhTnNeMnSf8AKWwcR7a4dK3blY1a+c7q4/75IxTO8RfAa+k+McP3+zHKqsl6b/DCUpdV6dOvtsq3jiRTb5Y7fq9Lb/N+p+p4vMpcIrxfyJyl5K8Iv0uJqy+7ThD2uqWU5fi27Ow9eJQelv7vHy7v4eVjz2+n4V19OnVHg/4aPZv/AI/Z/wCzuKf9yK5QeTzGrwUe9Sf/ADIkY+S/KbedUxT7KlBe3DP2ljX/AA0ezf8Ax+z/ANncU/7kfpj+Mns3J6XEJL3+LB4jWv4zxIrf03srhB+LMa3HY/hl/wC9n0/JflHCpi/72h//ACos1xfFH2enr/wrix2k/vZSo9fZ+bGGn84vTXXaWmZFwvvj4Tf/AEPE8C3/ADeXRP5r9Wb90/4MqoOs60/VJ/mtnqsynxivX8zCq+SzAv8AR160fvKnL1KNP2ot/wAbi1U/wW1z36cs4y3/AAbPWU8YUnV/RN1/5tuv/wCRo+9wvvE4lQ06eJcRr096hnZSg/zh5vJJfSUWvoeqzNcY+v5ELW8lMl+ixafRtUGvXGrK3gy2kFa/AfFz2gx/8ujkL2WVj02JL86o0Tf5ynJmxuDfygOdDlV/Dsa9frSryLMWT+qTpyI/u6b+a9TJjmFJ77rtXwuVjFeTXOKX6Lmav3Kuz/xlSXrJxAjh2W8dnCLtLIry8KT0vvKlfU37tWY8rGoL9qyFX5I252T75uE50uTE4jh32ab8mF9fnpLW26ZNWpdV1cNGXCvTn6Mk+/Xw3lKxvJ/MsFd4jD1YJb5c23C3343h3qRmYOEzk9yvgAAAAAAAAAAAAAAAAAAAAAAAAAAAAAAAAAAAAAAAAAAAAAAAAAAAAAAAAAAAAAAAAAAAAAAAAAAAAAAAAAAAAAAAAAAAAAAAAAAAAAAAAAAAAAAAAAAAAAAAAAAAAAAAAAHWc0k22kkttvokl6tv5Glu8jxdcG4dKdKulmZMPWnEj5ijL9meQ9Y8J/ODtc49NxSaZ5zqRgryaRJYHLcVj6nNYWlOrLioRbsumT3RX2pNJdJus+H2r7c4eDDzMzJpxoa3u6yMN6+Sb3L9yZA7t940+MZnNDHdXD6X+FULzcnW/wBbIt+H4l/V0VuKbW20pGiM3JlbZK22c7bZvc7bZytusf8Aasm5Tl++T0RdTMYrSCv1vRfH2G3sr8l+JqWnj6saS08ymucn1pyuqce2POrqJyds/Hrw6pyhhY2TmSW9XSUcXGk/p5jeQ1v1f2eKa6pyTNCds/GNx3LbVV9eBX/V4lcHNr5TvvjZNvf61So6dNeu9JAjKmMqz427NPn6zbGXci8nwFnChGpJfWrfSvt2ZLm0+uNONuFj28c45flT8zJutyJ7bUr7J3OLfryc7ahv5QUUeIAw277y7RioRUYpJLRJKyS6ktEAAfh9AAAAAAAAAAAAAAAAAAAAAA6WVJ+qT09ra3pr0f5r5ncAGbdlu/DjGFpY3EsqEU98k5Rya39OTJjclHXTUUte2jevYnx95VaUeI4VeQkutuJLyLJdf6m2Uq969Wropv2gvSKgMiniKkPRk+zevBlazDk3lmYL/aMPTbf14x2J36509mb7JNrqLLO77xT8F4jyxhlfZrpf5PmKOPcn8k+aVNmum3VbYlvTae0bbjJNbXVPqmvRop3lHfR9TMu77vg4nwrSwcuyqtPf2eX3uK+jX9DPcYfN+V5bk0tt6JOnmT3TXevh8zVeaeS6nK88vrOL4U6yvHsVSC2l0JOnN9MuJauCIHdt494NKvi+L5b98nDjOdT+ssaUp3Qfp0rnfvTfw9IknOxPeJg8SqV+Dk1ZFb/YepwfvGyqSjbVNb04WQjJPo0iVpV4VfRfdx8DTubcnMxyp/7VRlGN7KoltU30WnG8U3v2ZNS6YoyMAGQVoAAAAAAAAAAAAAAAAAAAAAAAAAAAAAAAAAAAAAAAAAAAAAAAAAAAAAAAAAAAAAAAAAAAAAAAAAAAAAAAAAAAAAAAAAAAAAAAAAAAAAAAAAAAAAAAAAAAGk++bxXcO4S3THebmdV9nolFxoaXrk2t8tST0nCPPa/avSk4+c6kYK8nZElgMuxOYVVQwtOVSb4RW5dMm7RivtSaS6TdN1yinKTUYpbbbSUUvVtvokvmyO3er42eG4acOH8vFMj2dVqjhQ6tNyyoxsU9afw0Rsbek3Wpc6iN3qd/nE+MSksq9wxm9xwqfgxoLqkp6Sne9Pq7pSi5dYwrWorXhC1sxb0p6db39y3eNzfWR+TOlTtVzSXOS0fM05NQ7JzVpy6Gqewk1pOSZsTvL7/+K8Vk/tOTOujrrFxpSoxtNvpZGMua96aTd0px6bUYbZrmEElpLSXRJdEkdgREpuTvJ3fWbpwuEoYSmqWHhGnBbowiorwW99Ler3tgAHwZYAAAAAAAAAAAAAAAAAAAAAAAAAAAAAAAAAAAAAAAPVwni12PYrse63HtWtW0WTpsWntLnrlGTjv9Vtp+6ezygHzKKknGSTT0aaurdDT3knu6/wAdGbjuuridKzadqMsmrlpy646S5pVaVN731lyvHfK9pSaUZy67vO9zh3FYOeDlVXOKjKypS5cihSW4+dRLVte9PXNFJtPTenqqc9XCuK20Wwuosspure4W1SddkOqfSUWnp6W4vcZa0010JOjj5w0l5y69/j8bmrc78nuX4+9TCr8mqfYV6Tf2qe6PR9E4Jb3GT32/AhB3R+Oi+hQp4xXPKgmo/bKIQWRFN/ivoj5cLFFb3KhKxrWqrJJucx+yva/FzqY5GJfXfTL0nXJSSfvGS9YyXvGSTXyJ2jiIVV5r7uP47DnvO+TePyadsVDzW7Rqx86m+yVk0/szUZfZPsAAyCrgAAAAAAAAAAAAAAAAAAAAAAAAAAAAAAAAAAAAAAAAAAAAAAAAAAAAAAAAAAAAAAAAAAAAAAAAAAAAAAAAAAAAAAAAAAAAAAAAAAAAAAAAAxbvC7zcHhVH2jOvjTDeoR6ztvnpvkqqinOybSb1GL0k29JNrTvfv4wcXh3PjcP8vNzU5QnKM1LFwZxfK1dKO/Mti9ryINNOLU5VPScGu13bHKz755OZfZfdNt805NxrT18FUN8tVa0tQgkum3zSbk4zEY2NPzYav1L49nrNs8muQGJzLZxGM2qNB6pWSqyX2U0+bi/25p30cYSTutyd9Hi/z+JeZRic2DgyXLqEms29frOy6EtVRfoq6dS0nuyXNyQ0DXWktJJJeiS0l+5HYFfqVJVHeTv+OHQdJ5dlmFy2iqGEpxpx0vbe2lbalJ3lN9cm3wVkAAeRKAAAAAAAAAAAAAAAAAAAAAAAAAAAAAAAAAAAAAAAAAAAAAAAAAAAA+/2F7eZfDMj7ThXSot0lPXWu+K9I3Vv4bYrb1zLcdvlcW2z4AP1Np3Wh5VaUK0HTqRUoyVpRkk4tPg07prqZPjuQ8ZeJn+XjcR5MLNlywU/iWFl2N8q8ucnLyJTbjqq6frLljO1rbkemU7yWzevcd4ss3hPLRk8+dg7/BKzeVip/wBRZY2pwj7UWSjFb1GdaSiTWHx/1av8Xx+PqNE8pPJwpbWIynR6t4eUtP8AdSk9PuTdt+zNaRLFAY72F7wcPiVCyMLIrvq3yycH8dM9KTrth+OqxKUW4TUZaaetNN5ETiaaujn+rRnRm6dWLjKLtKMk1JNcGnZp9oAB+nkAAAAAAAAAAAAAAAAAAAAAAAAAAAAAAAAAAAAAAAAAAAAAAAAAAAAAAAAAAAAAAAAAAAAAAAAAAAAAAAAAAAAAAAAAAAAAADGe8LvGxOF408rMtVdcekV+Ky6ftXVBfFOcvRJenq2km1+NpK73HtRo1K9SNKlFylJpRjFNtt7kktWz7fFeLVUVzuushVVXFynZZJQhCK9XKT0kiC/f34xr87nxeFuzGw38M8lry8rMXuoL8ePS1r15b5baaqScZa578fEBl8ct1Z9zhV2c+PiJ7UdLUbL5JtW39W9rUK+bUU9Oc9YFexOOc/Np6Lp4v4L1nS3JTkDSwKjisxUalbRxp6SpwfXvVSa6dYQfo7TtJcJHIBEm5AAAAAAAAAAAAAAAAAAAAAAAAAAAAAAAAAAAAAAAAAAAAAAAAAAAAAAAAAAAAAAADJu77vIzeF5CycK51T6KcH8VORFfqXVvpOPrp9Jx3uMovqWBdw3iTxONw8vX2bOrinbizaan0+KzGn/jqtp+ysgtc8I80XKtc/XCzJ12V21ylXbVONlVkHyzqnF7jOEl1Uk/dfl7szcPipUX0ro+HQUflJyTwmd025JU66XmVorXTdGa05yPa9qO+LWqlcGCL/hv8XUM1wweKShVmP4acnXJRnfswl1aqyNdGnqFr6x5W/LUoCy0qsasdqPz7Gco5vk+KynEPD4qOzJaprWMo8JQl9ZPuafmySkmkAB7EKAAAAAAAAAAAAAAAAAAAAAAAAAAAAAAAAAAAAAAAAAAAAAAAAAAAAAAAAAAAAAAAAAAAAAAAAAAAAAAAAAAAAAAAADXffZ324vBMVX3qVttsvLx8evXmXz02222lCqCW52S6JaSU5yhCXzKSgtqWiRl4TCVsXWjQoRc5zdoxW9v2JJatuySTbaSZ+/fD3zYfBcZ35MuayXSjGg4+flT6fDCLf4Y7TnY/hhHq36J1w953enmcXypZWZPfqqaIt/Z8Ov2rqi/f9u1pTtl1ekoQh4u3nb3K4nlTzMyzzLp/CtLlrprTbjTVH9WuHM9JtybblJyk23j5WMVinWdlpHo97+B1lyU5IUMkp85UtPESXnVOEU98Kd9y6Z2Up9UdAADANhgAAAAAAAAAAAAAAAAAAA6W3KK3JpL5tpL+LAO4My7EdzXFeIqMsPBvsqlrV8o+TjtNbUo22uEbI/2qvM/363R2S8BPE7XvNy8TEh0fLT5mZdJe6luOPXW/TUozvX06dciFCpP0Yv3eL0K9j+UOWYC6xOIpRa3x2tqf8ENqf8AL17iMpxKWifHZ/wH8HrSWRZmZb+cr3jp/TWMqnr2/F/H1Nldm/DnwPE06eGYvNH0stg8q5e39NkO23/3/wDeZkcuqPe0u+/sVvWUPFeU3K6V1RhWqvpUIwh4zntr+7KwcDHlb/RQnb/moSt/+RSPt4Pd5xK3+j4ZxKzfvDh+ZKP+sqHFL6t6LYMThldf4K4Q/uQjH/ckeoyVli4y9XzKxV8q02/osIl0bVdv2UolW+L4eePT04cIzHvX4o10636bV9lTX8Onvo+rR4Ve0Tenwq2P1lk4Gvy+HLk/9hZmD1/NtPpl6vgRU/KnmL9Ghhl2qu36q0V6itGfhO7QpN/o2T+iycPb+i3kJfxaPBkeGTtFHq+EZH+jdgzf8IZcmWegfm2n0y8V8D5j5UszW+jhn+7XX/7HuKqOI9zPGKvx8J4l/wAnhZF6X5umuxL0930/ejH8nszlV78zEy6tevm4uRVr8/MriW7nWcE1ppNfJ9UzzeWR4Sfh80SFLyq11+kwsH92rKPthP2lOsb4tuO1teq2tr816r95+hbPx3u7wMqPLk4WLfH9m3HqsT9/SUWaz474Nez175lhyx5f+jZORTBflSrXQkvkql8vRJHhLLZr0Wn23XxLHhfKlgJ/9YoVqf3HTqrxcqL8IvvK5ATN7U/yflT28LiNlb9VDKpjfX/dUqnTOO/2peZr9lmmu03g74/ipy+zU5SX/E7/ADG18+S+vGn090ov6cxhzwlWG+L7tfYXXA8scnxmlPEQi9PNq3pO766ijF/uyZpcH7cWwLMe105FdlFy9ar4SptS21vksUZOL09SS5X7Nn4mIXJNSSktU1dNbrdKfEAAH6AAAAAAAAAAAAAAAAAAcNEt/DH4t3X5XDeL2uUG1DGz7ZbcFr4acucn1XRRryJPb2o2ddTnEk4aPejWlSltR71wIHOclwub4d4fExut8ZL04ztpKL9qfmyWkk9LXERkmtrqn1TXo0ckGfCz4pnhuvhnErJSxW66sTIa28LfwRpua6vH3yqFjTdPXmfl9apyxlvquqfp9S00K8a0dqPeus5Dz/IMTkuJdCurxd3TqJPZlHpXQ1dKUN8X0xcW+QAZBWQAAAAAAAAAAAAAAAAAAAAAAAAAAAAAAAAAAAAAAAAAAAAAAAAAAAAAAAAAAAAAAAAAAAAAAAAAAAAAAAAAAYz3jd4WNwvEtzMqfLXWukV+O6yXSFVa/WnOXRJenVvSTa/G0ld7j2o0alepGlSi5Sk1GMUrtyk7JJcW2fI75u+HG4Lhyyb3zWS3DGoX48q7lbjCPR8sfedj+GEdt+ydanb3t5lcTyrMzMnz3WaWo7VdMI/hqpi3Lkrj1aW23Jyk25Sk37e9PvOyuL5k8zKl67jRSn93h0b3GqtfP0dln4rZrb0lCEMSKvisU6zsvRW74v8AGh1vyQ5KU8koc5UtLETX0kt6inrzcH0LTal9eS/ZUQADANhgAAAAAAAAAAAAAAAAzbu07mOJcWmo4eNJ17XPk2p1Ylabf+Na1ZLo/u6lOW9bUU+Y+oxcnZK7MbEYmlhqbq15xhCO+U5KMfF2XYt7ei1MJMh7Gd3efxGTjgYl2U09N1qMaovempX2yroi17qVia+XVEz+6/wN4GLqziM/0jd/VuLpwoevTyuaUrXp6btm4vW1XDbTkbwrhFVFcKqKq6aoJRhVVCNVdcUtKMIQSjFJdEkkkS1HLpPWo7dS1fwXrNO5x5TcLQvTy6HPSX6ye1Cl3R82rPv5rqbIa9gvAJdOKnxPN8jen5OCo2WQ69VK++uUNtaT5aGoy3qU1pkkOwXh84Pw1L7NhVeYlp33L7RkS6762280l16pR5Yx9IqK6GxQS1PDU6fopdr1f47DTGacq80zK6r1pKD/AFdP6OFuhqFnK3Dbcn13bAAMoqIAAAAAAAAAAAAAAAAAAAAB87jnZ3HyYOvIpqvraacLYRsjprT6ST1tfI0J288DfCcmTsxJXcPn1+ChxsxZPWl9zbGTrS0tKiyqPruLb2SMB5TpQqekk/x07yZy7Ocdl0trCVp0+lKXmvtg7wl3xeuu8re7wfCJxrAblChZ9CW/OxGueKS/xmNOSui310qvtEda3KLejTM4tOUZJxlF8s4yTjOuS9Yzi0pRkveMkmvkXDmAd4vcTwrim5ZeJVK5x5Fk1xVWVGPqkroam4p7ajJyim306vcVVy5PWm7dT+P+puDKPKhUjaGZUlJbucoq0u2VOT2JfuSppcIsq2BJLvQ8D2fiKVvD7f0hSuvkyjGrNhHXXWmqsiW+vwKltdFBtJSjjlYs65OFkJ1zj+KuyEqrIP5ShNRnF/SSTIapSnTdpqxu7LM4wWZ0+cwdWNRLeldSX3oSSnHtcUn9VtH5gA8iZAAAAAAAAAAAAAAAOGiVPhO8Tv2aVXCuI2fzZ6rwsifM3jzlLUce2W39zLfLVJpKppQb5ZQUIrnWcE001tPo0+qafsz2o1ZUpbUfwiEzjJ8Pm2GlhcSrp6xkrbUZrdOLe5ro3SV4vRsuJOSInhB8Sbs8vhHEbXK1fDg5Fkviuil0xbZv8VsEn5c5PmsjqL5pR5rJdlso1Y1Y7UfwzjnO8lxGT4qWFxC3axkr7MoPdKN+DtZrfGScXqgAD2IAAAAAAAAAAAAAAAAAAAAAAAAAAAAAAAAAAAAAAAAAAAAAAAAAAAAAAAAAAAAAAAAAAAAAAAAAAAAAAA8nFuK10VWXXTjXVVCVlk5PUYQityk38kkVo+IDvxt45l+YvMrwqdrEx56TintSvsit/f2p6e3Ly4JRWt2OexvGN39/br3wvFnvDxrE8mcfTMya/SCfo6cefX0fNfFNNKqLlGoruOxO2+bjuW/rfwXt7jpzkDyUWBpLMcVH6apH6OLWsKclv6pzT14wh5u+U0gAIk3IAAAAAAAAAAAAADiUtdX6f7gDk+t2S7J5OfkRxcOmV+RJc3lw1uEE0nZY21GuuLaTnNqO2l1cop7f7jPCbmcW1fleZg4DUZRt1D7RmRl1/m8Jc3JHX+Our5XuPJG1czjO/sD3dYfDMeONhURprWt6+Ky2X7dtj3Oyb95SbZJYfBSqedLRevu+Jq7lJy8wmV3oYa1eurppS+ji/tyXpNPfTg771KVNojz3P+BvGpUbuMSjl3bUli1ymsKrS/DY/gnldd8ymoVNai65JOU5R4WFCuEa64RhCCUYwhFRhCK6JRitJJfJI/cFgpUYUlaKt7fE5tzbO8bmtTnMXUc7X2Y7oRT4QgvNj1u21LfJt6gAHsQQAAAAAAAAAAAAAAAAAAAAAAAAAAAAAAAAAMA70u4zhvGIJZlCdsVqvJrbqyavfSsjpyh86rOet9G47Saz8HzKKkrNXRlYXFVsLUVbDzlTnHdKEnF+Ktv3NbmtHoVw99HhT4hwhWZEP57gQ5pO+tNXY9a228mnWoxhHXNdW5Q0pTlGlLS0nCaaTTTT6prqmvoXFEdO/HwdYnEXPKwXHCzWm5RSSw8uXru2EYt12e3m1a2n8ULNR5YSvl/1qX8Pwfufib75OeUlTtQzVWe5V4rT/eQitPv09NydNK8iAQPr9rOx+XgXvGzaJ416XN5dnK+aO9KcJwlOuyDfpOEpL22mml8ghWmnZm96dSFSKnTalGSvGUWpRae5pptNPg02mAAfh6AAAAAAAAAAAACMmmmm04tSjJNxlGUWnGUWtOMotJqSaaaTWtFg/hR8Qv6Vo+x5Un+kMWuPNOXKvt1X4VfHWl5kWkroqKSlKMktT1Gvg9/Z7j92JkU5WPPy78eyNtU/XUo+qktrmhOLlXOO1z1ylHa2ZWGrujO/Diur4lR5TcnqOd4R0ZWjUjeVKpb0Z9D47M7KMl2SScoxLeQYB3J97lPGcGvKr1C1fd5NG9vGvj+KPzcJLU65frQkvR8yWflsjJSSktzON8VhauErToVouM4ScZRfBr29Ka0as02mAAfRigAAAAAAAAAAAAAAAAAAAAAAAAAAAAAAAAAAAAAAAAAAAAAAAAAAAAAAAAAAAAAAAAAAAAAAAAjp4we/f9HYv2DGm1m5tc4ynCbjPBxmuWVycesbbNuFLTi01OxPdSUtxd5veFRwrBvzsjfJTH4YLXPfZJqNVUNtJzsm4xW2kt7bSTaq47Y9rr8/KvzMmbndfZKctvca47fJVDotV1R1CK0ui29ylJuMxuI5uOxHe/Uvnw7zbPIDk1+csT+WYiN6FGSsnulWSuo9cYXU5Lj5kWmpO3xkjkArR1OAAAAAAAAAAAAAD63ZLsnk5+TViYlTuyLXqMF0jGK1zWWS01XVWmnOb9OiSlKUIy/Um3ZHnUqRpxc5tRjFNyk2klFK7bb0SS1beiR87Ew52TjXVXZbZN8sKqoStttl7RhXBSnOX0imybfh+8GteNyZnF4wvyE4zqxNKePitdU7fWN9yl1XTy62o65muY2H3AeGvF4LBWy5cjiM4ct2S0+WtNqUqseMv6OvaW5aU7OWPM3yxjHcpYMLgVHzqmr4Lh836jm7lZy+ni9rCZa3Clqp1d05rohxpw69JzW/ZV4viMddF0S/2HIBLmlAAAAAAAAAAAAAAAAAAAAAAAAAAAAAAAAAAAAAAAAAAAAADEO8vuqweLUeRm0qaXWuxajfjz/bqs1zQeujS+GSbTTT0V6993h9zOCWrzObIxLHJU5kK5KHRrlryNc0aLmpJJSko2tScN8soxs5PFxng1WRVZRfXC6m2Eq7KrIqcLISWpRlF9GmmYWIwsayvulwfx6S+8meV2KySahrUoN+dSb3X+tTbvsS4tejPdJXs41CAkF4kvCxZwnnzcJSt4b62RcpWX8O+s3LcrMb/wA65Odf6+47sjH0rNSlKnLZkdXZZmmGzPDxxOFltQl3SUlvjNa7MldXXRZpuLTYAHkSoAAAAAAAAAAABsPuK74rOCZ8clc88ea8rLojJ6tpck/MjBbUr6NOVba207K04q2TLOuFcUrvqrupnGyq2EZ12QfNGyEluMov3TTKgiWngj78PLs/QuTOTha5zwJyaarmo81mIm9NKSjK2pfEk1bHcfuouXwGI2Xzctz3dvz9ppjyh8mvyuh+csPH6WlH6VL61FfW+9T1d+NO935kUTUABYTmYAAAAAAAAAAAAAAAAAAAAAAAAAAAAAAAAAAAAAAAAAAAAAAAAAAAAAAAAAAAAAAAAAAAAAAGk/Fd3zPhPDuWl/zzNcqMfTSdEXFu3JfulVH4YtLrbOpdFuUfOpNQi5PciSy7AVcwxNPC0FedSSiuhcXJ9CjFOTfBJkX/ABf99H6Sz/slFilg4MpQXL6X5acoXWOXvGpfcwS0uZXS3LmhyaDOtdaSSXRJJJfJL0OxUKlR1JOT4/ix21lmXUctwtPCUF5tONr2V298pStxlJuT63ZaJAAHkSgAAAAAAAAAAPrdk+yWTn5NWJiVO3IueoRXSMUtc1lktNV1Vp7nNrp0SUpShGX6k27I86lSNOLnNqMYpuUm0kopXbbeiSWrb0SPX2C7BZXE8qvExK3O2b6v0rogvxW2y9Iwiv3yeoxTbSLHe4/uLxeCY7rp+9yLeV5OVNJWXyW2oLS+Cmtykq6+uk225SlKTdxfcfj8ExfJrfm5Fup5WS46lfYklqCbk66YfqVKTS25NylKcnsosuEwipLal6Xs/HT+Hyryy5ZTzabwuFbjhovrTqNP0pcVG+sIPqnNbVlAACSNWgAAAAAAAAAAAAAAAAAAAAAAAAAAAAAAAAAAAAAAAAAAAAAAAAAAHWytNNNJppppraafqmvdP5EF/E54UfsPmcQ4ZCUsPfNfixSbwd+s6Ekm8bfrX8Tq22n5a1XOo6zgmmmk01pp9U0/VNfIx69CNaNn3Pr/ABwLPkHKDE5LiOeoO8XZVKbfmyiuD6GrvZmtYtvfFyTp4TOSSXis8Mz4dKfEsCDeBOUpZNMU2+GzlLbsiv8Aikm30SSxnr/FteTG0qtWlKlLZkdg5TmuHzXDRxWGleMtGvrRmt8JLhJX7GrSi3GUWwAPEmAAAAAAAAAAfpi5c65wsrk4WVyjOucdc1c4NSjKO01uMkmtprp1TPzAPxpNWepZ54e+92PGeHVXtw+1VKNObCPRV5EYrmkottxhamrYJt6jJLbcWbMKzvDP3vvg/E4Tn/guY6sbL665IubVWQ/bWPOyUpemqp2tbeouy+E00mntPqmuqafo0WvCV+dhrvWj+Pf7bnH3LTk/+Z8e1TX0NW86XV+1T/ck7L7Dg3q2dgAZpQQAAAAAAAAAAAAAAAAAAAAAAAAAAAAAAAAAAAAAAAAAAAAAAAAAAAAAAAAAAAAAAAAADpdcopyk0oxTbb6KKS2237JLqVe9/nepLjHE78pScsaD8nCi/SGPDS50k2t3zUrnL8TjKEX0rilLnxsd6scPhv6Pg/5xxSNtTXX4MOKjHKk2mtc6sjRFb23ZJpSVc9QDIHMa13za4avt4Lw1OjPJnkfN0pZpVXnVNqnRuv1cX58196a5tNWaUZrVSAAIU3oAAAAAAAAAADiUtdX6f7gD9sPEnZOuquLnZbZCqqEesrbLZKFcIr9qc5KK+rLHvDX3AQ4Li81qhPiORFPJujtxrW+aOPVKST8uvpuWo+ZNOfLHcYx154NfD99mrjxfMg1kXwX2SqcdPFomv6Vp/Err4tdHp116Wk5TJUFhwOF2Vzkt73Lq+PuOauX3Kz8rm8twkvooP6Wafp1I/UXTCD38JzV90YtgAS5pQAAAAAAAHk4pxWqiuVt1kKq4JynZZKNcIJLbcpSaSSS31YPqMXJ2Su3oktXc9YI7dtfHHwfH5o4vncQnF8u6YOqhv5q65QjZDf69SsTXWLkaQ7Q+PPjFj/m2NgYsPlON2Zanv1Vnm49emvZ47/Mwp4ylDjfs1+XrL7gOQuc4xbSo81HprSVP+R3q9+xbrJ8ArdzPGD2gn/ldcP8AN49UV/tUhh+MHtBD/K65/wCcx6pL/Yo/7zH/ADjS6JeC+JP/APRhmtr85h79G3U/+EsiBAfs748+L1v+c42BlQ+UI3Ydr/5Tzciv93kfv+W7uxnjl4PkcscpX8PnJqO7q3bRt6W3dQrFXDf69yrjGPWThp6yIYylPjbt0+XrIDH8hc5wa2uZ52PTRaqfyK1Xv2LdZIoHk4ZxWq+EbabIW1zW42VyjOEk+qalFtNa+TPWZpQpRcXZqzWjT0dwAAfIAAAAAAAAAAAABr7vI7+uE8J0szLjG2X4aKozyMmXr1dVMZyhHprzLFCtPSck2k499sv5QH1jw/h+/VK7Ms5Y/SSop3KcX8pXVSXUxqmJp09JNX6N79Ra8s5LZpmSU8PQm4PdUlanC3SpVHFSt9jafC1yYoK7M7xr9oLN/e4dSftTiNJfk7rrpfxbPk/8Lbj+9/bvfevIp5fy1yen7zEeY0uiXgviXKHkxzVrWeHXVzlR+ylYspBXZg+NjtBW195hWpe12I2pfm6b6ZfwaNm9jP5QF7jHiPD+X8Kd2HZzLf60nRdqUIr2Ub7pPf02/uOPpS4tdq+FyPxfk6zmhHajCnVtvVOqr27KipuXZHafUTGBr/u47+eFcV6YeXCVqW5Y9qlj5MV6b8m1QnKO3rngpwb6KT0zYBnxkpK8Wmuo15icJWwtR0sRCdOa3xnGUZeEkn38QAD6MUAAAAAA/HMxI2QlXOKnCcZQnCSUozjJNSjJPo002mn6oro8T/cA+C5KuoSfDsqzlx/XmxbnGU5Ys972tQnOmSfWClBpOrmssdPkdreylGdjXYmTBWU3wcJx9+vpKL/VlF6lGXtJJmJicOq0bcVuf44Fz5LcpKuR4rnFeVKdlVp33x4SV9NuG+L0urwbSkyo4GZ97vdZfwbOsw7tzjrzMe9x5VlUNtRsWvh54tOFkV+Ga3pKcN4YVSUXF2e9HYuHxFPE0o1qMlKE4qUZLc4vc+ntTs09Gk0wAD5MgAAAAAAAAA4lHfR+j/2lg/g0723xDh32S+xzy+H6qk5Nc9uNJy+zWPq3LlgnRKcuspVOT25bdfJnfcd3n/ofidGdLfkpSoy9Jyf2S1wdrSXVuuVdd2kpN+VpJuSMzC1uaqJvc9H2dPcUvldkf54y6dKKvVh9JR015yKfmL+0jeFr22tmTvsotNB0qtUkpRacZJNNPakn1TTXRprqmjuWw4zAAAAAAAAAAAAAAAAAAAAAAAAAAAAAAAAAAAAAAAAAAAAAAAAAAAAAAAAAAAAAAAB1nNJNtpJLbb6JJerb+R2NKeLvvIlw7g1ypnyZOZKOJS/1oqzrkTj/AG4Y6tcH+rNwemk0edSahFyfBElluBqY/FUsLS9KrOME+C2nrJ24RV5PoSZCbv8A+8uXFeK5OTv7iucsbFW24/Z6ZSjGxdWt3y5rtpL4Zwi98mzXZ1hBJJJaS6JL0SR2KdOTk3J73qdx4TC08JQhh6StCnGMIr7MVZd73t8XdsAA+DLAAAAAAAAABvXwm9xn6WzPtV8U8DBsXmxlHmjmX8nNDH69OWHNXdb67jyQ1q1uOn+ynZLIz8mnDxYqWRkT5K+barg9NuyxpNxqrinObSb0tJSbjF2n93XYLH4Zh04WNHVdMdb18Vs31stn852TblJ/NklgsPzktqW5e3oNXcvOUn5rwn5NQdq9dSSaesaW6U+lOWsIPTXakmnTMjjHXRdEv9hyAWY5QAAAAAAABEzxUeKiWPKzhnDLHHIi+XLy46f2fa26KG9p3NNc9mmq03FfHt1eNWrGlHal+GTuS5Lic3xKw2GWu+UnfZjC6vKTSdkrpaJtuySbZm/fv4tMThTljYyjm560pVxnqjE31byLI82ppaaoiud7jt1qXOoN94Hedn8Utdudk2Xddwp244tHXaVVCflx0/12pWPS5py0tYt8/VtttttuUm3tyk3tylJttybbbbbbbOSsV8VOq9dF0fjf+LHWOQclMDksE6Udurbzq00ttv7K1VOP2Y629KU7JgAGIXIAAAAAAyfu/wC87P4VarcHJnT681Lbni3be35uO3yS2+vOuWxddTjzS3ObuI8WeJxZxxslRws9vljVKfNTltLaePZJRbm0m3TJKa09OxJTdeQXs02mmmmm1KMovcZRa01KLSakmmmk1rRl0MTOi9NVxX43fi9ymcoOSmBzqDdWOxVt5taCW3f7W5VY/Zlql6EoXbLiARN8K3ineQ6+GcTs3kPUMTKnpfadelNz6ffa0oT6u3qm+fTnLIs9GtGrHaj+Gcn5zk2JyjEvDYlarWMl6MocJRfFPodnF3UkmgAD2IIAAAAGL95HeNi8KxLMzLny1w6RjHTsvsf4KqotrmnLXRbSSTbaSbX42oq73HtRo1K9SNKlFynJqMYpXbk3ZJLtPd2w7Z4uBRPJzLoUUw0nOb1uT6RhFes5yfSMIpyk/REG++nxl5ue7Mfh3PgYjco+bGWs7Jh0XNzx19ljJc3w1t26cX5lb3Fau73++LL41k+fkyca4N/Z8aL3TixfTotLntab5rZJye3FcsdRMGK5icbKfmw0j638F1eJ09yX5A4fL4xxGPUatfRqL1pwfQluqSXGUrxT9BaKT5nNtuTblKT3KUm5Tm/TcpPbk+nq22cAEWbcAAAAAAOa5tNSTcZRe4yi3GUH6bjJacX19U0yRPcv4y83A8vH4jz5+JtR86UubOxoa1vnl/hUY9G42yVrXM/Mm+WDjqD1p1ZU3eLsRGZ5ThMzpczi6cZx4N6ST6YSXnQfY7PdJNXRbb2P7aYufRDJw7oX0z9JwafK10lCa9YTi+koSSlF9Gj7ZVh3Qd8OXwXJV+NJuqco/acaT+5y4Lo9r9S1R/BbHUk1FS54pwdk/dt3jY3FcSvMxZN12bUoyXLZRZF6nVZHb1OD6dG4yWpRcoyi3ZcNilWVt0lvXvX40OV+VfJGtkdTnIN1MPN2hUtqpavYqW0UrJ2kvNmldKLvGOUAAzjXwAAAAABqvxFdysONYEqo8kMyn7zEulHfLNNOdMn0aryIry5evK3GepOtJ1oZeLKuc67IuFlU51WQl0lXZXJwshJe0oTi4tfNFwZC3xwdyjhOPGcWtck/u+IKO+ZWfBHHyOVLTUluq2W+ZNUPTXO4Q+Pw+0ucjvW/s6e72dhu/wAnPKTmKv5rxEvMqNui2/RqvfC74VLeauFXRK9RsiSACvnSIAAAAAAAAAOGjkAFg/gu7z3ncL+zWy3kcOksdtvcrcdxUse17bk2lzUybb3Kpy6cySkCVn+F3vFlw3jONJzUcfLf2PKT9HG3aol/eryXXp9fgnatbkmrMC04KrzlNX3rR+71HI3LzJ/zdmkpQVqddc7C25Sk2qkejSacrLRQlDsAAM81wAAAAAAAAAAAAAAAAAAAAAAAAAAAAAAAAAAAAAAAAAAAAAAAAAAAAAAAAAAAACvLxp9vvtnGHjwlunh9SoUeuvtFn3uRL5S+HyK/dRdctNNyRPHtz2rhg4eTmWa5Mamy576J8kW0v9J6X7ypfJzbLZzttk522znbbN+tltknOyX+lOUn9NkPmNS0VBcdX2L5+w3h5L8r5zE1cfNaUoqnDT9ZVvtNP7NNbL6qi6z8wAV86QAAAAAAAAAABm3cx3aT4txLHw4p+W5K3JnptV41bTt918Vi1VDrvmmnpqMj6jFyaS3sxsTiKeGpTr1XswhGU5P7MVd9ui0W9vRakqPA33PqnGlxi6L87LjKvFUkl5WIp9bI+/8AOpwU1LenVCppJSk5yqPwwsKFcIV1xUIQjGEIxWowjFajFJeiSSSR+5cKNJUoKK4e04lzvNqma42pi6mm2/Njf0aa0hBdkbXf1pXk9WwAD2IIAAAAHk4rxSuiqy62ShXVCVlk5NJQhCLlKTb0kkk31B9Ri5NJK7eiS6WaO8Wnfu+FYixsaWs/NjONcktvEpXw2ZDb6Ka5lGpNPc9y5ZKueq8v4ttttttyk29uUm9uUpNtuTbbbbbbZlPed3gW8Uz8nOtbfnWPyYPeqMaLaoqSfVctenL03ZKyWlzaWLlSxVd1Z34Ld2fP5HZnJTIIZLgY0mlzs7TrS6Z20j92mnsrhfalptMAAxC5AAAAAAAAAAAAD5abTTTTTacWntNNdU00mmuqaTRYZ4TO/l8VxHjZU1LiGHFeY9cryqG+WvIXs5LpXdy+lmpcsFbXErzMn7su8S3hOdj59ScvJk/NrjpPIx5aV1P5yilKPovMhW30TMvDV3Snfg9H2fL5cSm8q+T8M6wMqSS52F50ZafpLejf9molsvVK+zN+gi2EHl4XxOu6uu6qSnXbCNkJL0nCaUotfmmeotpxnKLi2mrNaNPfdAAA+T8M7OhVCdlkowrrhKc5yeo1wgnKUpN9FGMU22/RIrN8QnfXZxvOlYpSWFQ3DCqacNQ0lK+yL6+bc038Si4VuEOVNWOckvHR3rvHxauFUv7zOUp5Mk193i1uK8tr55M3y/J112rpuLIPEBmFe75tblv7eju9vYdH+Tfk9GlR/OtZefU2o0b8KabjKa6HNpxT0agnvjUAAIY3iAAAAAAAAAAAADZ3h877J8DzVbJzlhX6hm1R3L4drWRCC6u6lfs/FOvmhqTVajrEH3Cbg1KO9GFjcHRxtCeGrx2oVIuMl1Piuhp2lF74ySa1RcFh5kbIRshJThOKlCUXuM4yW4yT9009pn7EWfAt3qO/Fu4XfPmtw/vMbmfxSw5vXl9X8X2e3cVy9IVTpi0tJylMW+jUVSCkuPtOKM7yqplWNqYOprsS82VrXhJXhLvi02uDuuAAB7EGAAAD5/aDgNWVRdjXwVlN9c6rYP0nCyLjJfwfquqfU+gD8aufcJyhJSi2mmmmnZprVNPg09blUPen3e2cK4hk4FjlLyZJ1WSSTyMexc1NvTSe47hJxSXmwsWo8ulipPTxt907y8CPEKYJ5GBuVqUdzuxJf0sVrq3TLVyWpbjGyKW5ogWVLE0eam1w3rs+W47O5K54s4y+GIducj5lVf1sUru3BTTU1bRXcV6LAAMUt4AAAAAAAAB1nHaa+fyen+5rqn9UWheHfvBfE+D4WTOXPcqlTkvXLvIo+6tlrS1zyjzrS1qS1taZV+Ss8Anbjy8rN4dOXw5FcMumDfpbV91e1/frlRv/ADX1ZJYCps1NnhLTv4fDvNX+UTK/yzKnXivPw8lUWmvNytGourRxqPqh2E3AAWY5PAAAAAAAAAAAAAAAAAAAAAAAAAAAAAAAAAAAAAAAAAAAAAAAAAAAAAAAAAAAAIv+PXtm6uHY2FCWpZmSpXLfWWPjxdmvnp5Dx9v0ajKL2pEFzdvjG7aPL47fUn93gV14lfyc3CN98177c7FU/b7hP6vSRVMZU26r6tPD53OyOReXfkGT0INWlUjz0u2taUb9ap83F9FrcAADCLwAAAAAAAAACeHgb7r/ALLgT4jYvvuI8rr/ALGJU5eVrq1u2Up2trW4upPfIm4Yd3fYyXEc/EwItp5VyrbW+aNcYytvkmvRxorskn7NJ9fQtc4RwquiqqiqChVTXCqqEUlGuuuKhCEUuiUYpJJeiRMZdRvJ1Hw0Xa/l7TSnlNzjmMLDLqbtKt59T+xhLzV+9Vjf/dtcT1gAsBzUAAAAAACO3jj7a/Z+D/ZYycZ8QuhS+X1dNbV1yfvyWRgqpezVji/xEiSA/jz7QuzjGNjfqYuBGa9dqzLut8xP2a8vHx2vzZhYyexSfXp4/K5f+QuAWMzmipejS2qz7aSvD/FcL9VyN4AKodggAAAAAAAAAAAAAAAAAE/vA326llcIli2Pc+H3vHg/2secI20eiWlXzzoS/Zqi222yRRAzwF9pPL4rlYrfw5OG7En6c+NbHov7UoXyb6dVX7a6zzLXg57dJdWnh8rHHvLrALB5zWUVaNTZqr/eq8v8VT6ujQHByYl3tdpvsXC+IZXvRh5FkV+1KNcuWPt1lLSXX1aMxuyv0FIw9GVerClD0pyjFdsmkvWyt7vz7cy4jxfOyZfgV88ehfs4+NOVVWun+M5ZXtPepWyW2kjBTpVHSSbbaS231cn7tv3b9WzuUucnKTk+LbO8MNh4YajChTVo04xhFfZhFJepcdXveoAB8GSAAAAAAAAAAAAAAAZ53D9tHw/jGBk8zjDzlRdr9enJXkyjL+xGUoWvfROqMv1S0tMp0vpUouL9JJp/k1otb7ne08s3hPDcuevMyMHGst0ml5sqYeakn10rOZInctn6UO/3P3HP3lTwCvh8at726Mu7z4du+r6u7MQATZoAAAAAAA/LJx4zjKEkpRlFxlFralGS0017pp6aKre+Du3lwniOTgvrCuSnjt7bnjWbdLbbbbik6pSb+Kdcn03pWrkUvHp3cxsxaOKwWrMSUMa+SX4sfIsUaubXr5eROKi30j51nT4m1G4+lt09pb4693H49xtXyd5w8FmX5LN/R4m0Lf1yvzT725U+2a6CEgAKydVgAAAAAAAAAyfuv7XywOJYOZGXKqMqp2ddJ485KvJi/brROzW+ilyy9Yoxg6zgmmn1TWmvmmfUXZprhr4HjWowr05UqivGcZRkvsyTTXem0XD1WJpNPaaTT9mn1TO5qnwvdt5Z/A8G2bbtrhLFub9ZWYs5U879t2whC3p0+8/cbWLnCSnFSXFJ+Jwnj8JPB4mrhqnpUqk6b7YScbrqdrrqAAPswQAAAAAAAAAAAAAAAAAAAAAAAAAAAAAAAAAAAAAAAAAAAAAAAAAAAAAAeLjfFoY9N19slCuiqy6yUukYQrg5zk37JRi2/oj2mnfFv2kWNwDP6veTXHDWvV/apKqf7uSUt/TbPOpLYi5dCb8ESWW4R4zF0cMv1lSnDTfac0m+5O5XNxvjk8q+7Js3z5Ftl8k3txds3Pk378iagvpFHiAKY3fU7sjGMEoxVkkkl0JaJdyAAPw+gAAAAAAAdLrVFOT9Em3+SW2AS28AnYKM7s3ic1vyNYNO0/gnONd98k/RvklRHaXNFOS3qckTVNdeHzsGuG8HwsbSVnlK69rfxX3/AHtr69ekpcqT/DGMYrpFGxS3YanzdNLqu+1/ixxbyrzT85ZpWrp3gpc3T/s6fmpro2mnO3TJ73qAAZRUQAAAAAAVu+MHM5+0GX/Yrx6/9WpP/tFkRW74wcPk7QZf9uvHs/dKpL/ssisx/Rr7y9jNveTC351qX3/k87f3lE0yACuHUQAAAAAAAAAAAAAAAAABtvwlZrh2j4Yk9KyWXXL6x/R+XYl/r1w9fdfkWWlafhJwnPtHwxr0rlmWS+kf0fl1p/69kPXX+7dlhYctvzcr/tu38Mffc5h8qNvzpSt/2Wnft5/E+63dYGl/GPmuHZziDi9OUsKv8428Qxa5r98JSN0Gl/GNhOzs5xBR9YywrPyjVxDFsm/f9SMv/p1M7E35mdt+xL/KzX/Jy352we1u/KsLfs5+BW+ACoHbwAAAAAAAAAAAAAAAAAALK/Cdmc/Z/h/9iudf+pbNFahZX4TsPk7P8P8A7dc7P9e2b/8A6iVy79I/uv2o075ULfmylff+UQt/dVbm3QAWM5hAAAAAAB8Xtp2WqzsTJw7luvJpspmvkpxa5k/VSi9SjJacWk000mfaB+NXVmelOpKlNVINqUWpRa3qUXdNdjVyoDinC50XXY9n9Jj3XY9nTl+8oslVPp118cH02zzG/PGv2HjicZ8+CShxClX6W/6anlqvfyW15Mml+tKUn1kzQZTasObm49D/AB6jubKcfHMMFRxcd1SEZNdEt01+7NSj3bkAAeRLAAAAAAAAAExP5P7tn/8AmHDpS6p15lKb6uEtU3qK+UJqmUn87kTEK2fCJ2jWNx/E3tLJrvw38tWxVq5vpz48P36XuWTFnwE9qlbobXv95yf5RsCsNnEqkVZVqdOp1bWtOXi6e0+tsAAkTV4AAAAAAAAAAAAAAAAAAAAAAAAAAAAAAAAAAAAAAAAAAAAAAAAAAAAAAIg/yg/abVfC8JP+ksyMuevX+bwhTWn84yeVOWvnWn7Il8V+eOXj7t41Gn1ji4dUU/lO6c7Jx/PlVb/eiPx0rUX12Xr+CNk+T3C8/nVOTV1ShVqP+Bwi+6dSL7iPQAKudbgAAAAAAAAAzPuZ7ELiPFcHDlHmqsvjK9aTToq3bbGSf6tkYeU/85+9YYSa8BPZJ28Ty81/gxMTyY7XSVuXZF8yfzrrx5xa16Xr098ihDbqRj1+pb/UV3lDj3gMsxGJTs40pbL/AKyfmQ/nlH36XJ3AAuBxCAAAAAAAAACA/jz7Ouvi+Nk/qZWBGC+tuLdb5n/w8ijX7/3T4I6+OXsZ9o4OsqMXKfD767nyrb8m1qi5vS3yVqxXT/VjGtyeuTawsZDbpPq18Plcv/IXHrB5zR2vRq3ovtqq0P8AFUL9VyAIAKodggAAAAAAAAAAAAAAAAAElvAX2a8ziuVlNPWNhutP9VzybYPp/ajGhr8p/UnkR08DfYWWLwiWVYtT4he74JrrHGhGNVHXb2rOSd6fT4borW09yLLXg4bFJX46+Pysce8usesZnNZxd409mkv90rS/xdvq6NAYn3s9mftvC+IYnvkYeRUn+zKVclGS+sZaa+qRlhw0ZkldW6SkUK0qFWFWHpQlGS7YtNetFO1cnpbTT11T9Yv3T+q9DsZ1359hpcO4vn4sl8HnzyKHrSlj5M5W1aW30r5pUN9Nypk9JNGClKlFxbi+Dsd4YXEQxNGFem7xqQjOL+zOKa9T46rc9QAD5MkAAAAAAAAAAAAAAA6W2aTb9Em/m+ha33O9l5YXCeG4k+lmPhY1duvTzY0w83X08zmK4e4rsb+kOMcPxeVyhK9XXaW1CnGTvm59GlCUoQpfN8LlbCP66TtNSJ3LYelPuXtfuOfvKpj1fD4Jb/PrS7H5kOzdV9XfyACbNAAAAAAAAAAEbvHV2IWRwqvMjHduBepbSW/IyOWq6O36R5lTbLXr5MfX0IEFr/el2S+38Nz8Lai8nEvphJrarsnXJVz103yWcs/X9UqehvXxRcZfrRfSUJe8WvZxe0180V3MYWqKXSvWvlY6e8mOPdbLqmGk7ujV0XRTrLaX+JGq+1670dgARJuIAAAAAAAAA9XCePSxLqcuG3LFuqyYpfrPHsjbyv6S5OVr3TaLese9TjGUXuMkpRa9Gmtpr80U8zjtNfNaLTO4TtE8vg3Db5finiUqfvyzhFQnH84yi0/yJrLZayj2Pw/1RojyqYW9HDYlL0Z1abf34wlFd3Nz8TPgATxzsAAAAAAAAAAAAAAAAAAAAAAAAAAAAAAAAAAAAAAAAAAAAAAAAAAAAAACrPv8479p45xa3ba+220L5JYmsPp9G6HL6737lpN1qinJ+iTb/JLbKiO0GV5mTk2b35uTk27+fm32Wb/fzENmUvNiutvwXzN6eSqgniMTW4xp04J9VSbk/XSieEAEAdGAAAAAAAAAAnv4D+z6r4PZkJdcvMvk/qqGsZa+m6pdF9fmyA8paLQvDn2b+ycD4ZS1yy+ywtsXyuyG8i70/wDO2z/+pKZdG9RvoT8Xb3XNReU3Fc1lcKKetWtBP7lOM5P+fmzY4ALIcuAAAAAAAAAA8nFeGQvqsptip12wlXZF9VKE4uMk0+mmm0esA+oycWmtGtU10oqe7zu7+3hWfk4Nq/oZt0y2352NNt49u31fNDpLfpZGyO5cvM8YLDfFn3EPi2IsnGi3n4UZyqjHSeXU9Ssx2npObcVKptrU047SsnuvL5pppptNNOMotPTjKL04yTTTi0mmmmloqWJoOjO3B7n1fL58TsvkpyghnWBjVbXOwtCtH7aXpfdqJbS4J7UNdhgAGIXMAAAAAAAAAAAAGTd2fd5bxXOowKXyu6W7Zp6dGPFrz7V0fWEHqC007JQT0m2sajFtpJNttJJJtybekkl1bb6JLq30LDPCX3EvhWI8nKhy8QzIp2RbUniUb3Xjppa5mlGy7TkvNfKpSVcGZeFoOtO3Bavs6O/8bim8q+UEMlwUqqa52d4UY6X22vStxjBec+F9mDs5o3jwvhkKaq6aoqNdUI1wivSMIJRiv3JHqALacZyk5Nt6t6tvfdgAA+SLHjp7qpX4tPFaV8eCpQylvXNi2NPzPTq8exJ+qXl2Wvq4xRB4uBzsKFsJ12RU67IyhOEluM4TTjKMk+jUk2mvdMrO8QncpbwXOnWoyeFfJzwrm+bcH1lRN6WraG3FJ756uSfNJuxQgMwoWfOLc9/b09/t7To/yb8oo1aP5qrO06e1Kjd76bblKCvvlBtyS1bg3ZWps1eACGN4gAAAAAAAAAAAAA2f4fO5KfG81VSU44VOp5l0fhXLtcuPCftbct/h+KFfNLcG62/uEHNqMd7MLG4yjgqE8TiJbMIRcpPqXBdLbtGK3yk0lqySXgV7rHRi28UuglZm6hjb6tYcNPn+UfPt3Jcu+auFUm+qUZTn44mJGuEYQiowhFRjGK1GEYrSSXsklpI/Yt9GmqcFFcPacUZ3mtTNcbUxlTTbl5sb3tCKtCPdFJN8Xd21AAPYgwAAAAAAAAAVV99nAFi8Y4njxWlXmWSW/leo5K/dq5a+RaoV6eN3s75PHZXKOo5mJj2t/tW1c2PP+FVWP/Eicxjemn0P1NP32Nx+S/Fc3mNWg3pUotpfbpzg14QdQ0EACunToAAAAAAAAALAPArx7zeBurbbxM3Jo6/KzkzF+5LK5V/d17Ff5M/+T4z15HE6d9ftFN2v79Krb/8AhL+BI4CVqyXSmvVf3Gs/KLQVXJZyf6upRmu3a5v/AC1JEuQAWc5LAAAAAAAAAAAAAAAAAAAAAAAAAAAAAAAAAAAAAAAAAAAAAAAAAAAAAAPi9teIqnDy7X6V4103/o1yf/UVGYkWox29vlW383rq/wCJaR4i87y+A8YmvX9H5UY+n4p1ShH16P4pLp7+nuVeEBmT86K6n7fkdIeSulbCYmr+1Vpx/u4N/wDqgAEMbwAAAAAAAAAO+PgebKFX9bOFX/OSUP8AtFvfDMTy664fsQhD6fDFL/qKn+7zB83iXDK/XzOJcPg/ylmUKX7lFtv6bLaidyxaSfZ7znvyrVW54Sl0KvK3a6S/5QACbNBgAAAAAAAAAAAAib4p/Cs8h2cT4ZXvIfx5WJBa+06XW6lenndPirS+9bcvx755ZA8atKNWOzL8MncmznE5RiVicM7PdKL9GUOMZLinvvvi7STTRTv81ppptNNNOLT0009NNPo00mmtMFhnfz4TMTiznlYzjh8QkluzTePlOPtkVx9JNfD59a8xfDzK1QjAg13id2Wdwm1VZ+PKnmfLXbvnxshpf4m5JRk/7ElCzS24JaKxXw06T11XSvxp+LXOseT/ACrwOdQSpS2KtvOoza27pa7O5VY7/OjrbWcYbjGAAYhcgAAAAAAcxi20km22kkk25NvSSS6tt9El1b6GS93ndpncVtdOBRK5x2p2vcMahrXS2/ThCXVfAuaxp7UGk2pz9xPhLxOFOGVkuOZxCO3Gxp/Z8RySTWPW9Jy1tefZF26lJR8tScTLoYadZ6aLpe7u6Sm8oOVeCyWDVWW3Vt5tGDW3e2m1wpx+1LW2sIzasYL4VvCs6XVxTilS83VduHh21vmw5b5433xn+HIj8DhW4Rljyi23z6VUtQCzUaMaUdmPe+v8eBydnWdYnN8S8TiXd7oxXoxhwjFcF0vfJ3lJtsAA9yCAAABi3eT3b4vFcWeJl1qcJfFCel5mNaoyjG6mTT5LIqUkpL1jKUXuMpJ5SD5lFSVnuPehXqUKkatKTjOLTjKLs01uaaKr+9zudzOC5P2fKTnCS3RlQrnHHyo9fwt80YWrlbnQ5ynBOL3KMoylg5bZ2z7FYvEMezFzKY30WLUoS2mmusZwnFqddkXqUbISjOLSaaaIP99HgzzcF2X8OUs7DSlPyl8Wdjre+VVxj/OIxjvUq/vXrThNvmlXcRgZQ1hqvWvj2+J07yY5fYfMIxw+PapV9FtO0ac30p6KnJ8YO0b+hLXZjHMHHN1a9HFuMovpKEk9OMk+sZJ9HFpNPo0ckWbcAAAAAAAOrl1S95NRjFdZTk+ijFLrKTfRRSbb6JEju5rwY52bKF/EVLBxPV1P/DshddRUNOOPF9G5WN2a3Hy4N88fWnSlUdoq5EZnm2Eyylz2LqRhHWyfpSa4QivOm+xWW+TS1NW90Hc5l8ayfIxouNUHH7Rkyi3TiwfzfRTta24VJ7l6vljuRZN3b93OLwrErw8WHLXDblJ9bL7JdZ2WS9ZTk/n0ikorSikvb2N7F4vD8evFw6Y00VrUYR2237znOTc7LJPrKycpTk9tts+2WXDYVUVd6ye9+5fjU5X5V8rq2eVObgnTw8HeFO+re7bqW0crboq8YJtJyd5SAAzjXwAAAAAAAAAAAAIa/wAoNwb4uF5P0ycf/W8q3/sdP3kyiLP8oLg74bw+z9jiSg/orMPLfX6c1cV+bRhYxXoy7vai+chqrpZ5h2uLqR/io1F7yDoAKodiAAAAAAAAAAlL/J/Z/Ln8Rr/rMWiaXydVtik/3+bH+BFo3/4G87l49y+1nDsqPt+KNuLNfX8MZ9F+f6vTLwjtWj2+0p/K+lzuS4qP9U5f3coz/wCQsJABbTi8AAAAAAAAAAAAAAAAAAAAAAAAAAAAAAAAAAAAAAAAAAAAAAAAAAAAAA1B4tsvk7O8SfRbhj19fT73Lx6te3V8+l9devoVrFjXjS/8W8//ADnDv+lMIrlK3mL+lS+yn4yl8DqHyXxX5pqS6cVUXhQw3xYABFm3wAAAAAAAADYHh5xefj3CINb3mRl6b15Ndl6evo6l19vX2LSCszwq0t9ouFNfq25Mn+X2DLj0/fJFmZYst/Rv73uRzN5U53zGhHowyffKvWXsigACWNMAAAAAAAAAAAAAAAA8vE+F13VyqurhbXNalCyKnCa+TjJNM9QB9Rk4u6dmtU1vuiOvbrwN8IypOzFlfw+b9YY7hPFl6L+gtjPy0tdFROqPq3Ft7NLdpPAXxWvbxcrDyY+qVjtxJ6+S+G+EpenVyrT+mus8wYU8HSnwt2afL1F8wHLrOcGlFVuciuFWKqafedqv8+7TcVp5vhJ7RwbS4ZKxL9avM4fyv8lZl1z+v4F/1DC8JPaOb0+GSrX7VmZw/lX5qvLsn9fwez+idlgMX820732p9l4/+2/rLJ/0o5pa3NYXt5uvf/zNvVbqIG9mvAXxSzTysrDxlvqq3blza+XWFEYy/JzX5m5+wvgb4RiyVmVK/iE1pqF7hDFi+u/uKow8xPfWN87o9FqKfVyLBlQwdKGtr9uvy9RW8fy6znGJxdbm4vhSiqen3l9L/Pu03Hl4bwuumEaqa4VVwWowrioQivpGKSR6gDNKFKTk7vVvVt77gAA/AAAAAAAAAAAADAu8buL4XxVP7ZiQlZrpfXunJj6el1bjNrovhk5RekmmuhHftP8AyfSXXB4lP6RzKoWNr5eZjqhf6XlfuZMUGNUw1OprJa9O5+r3lqyzlRmmWxUMNXkoLdCWzOHdGopKPXs2v3FdPGfBZ2gq3yUY2SlvX2fLgpSXttZSxkm/lzNJ+/ufB/4KfaTev0Rb8/8ADOGa/j9u1+7eyzQGFLLab3OS7HH3xZdqflQzWCtKnhpdcqda/wDJiIr1FdHBPBb2gu1z4+Nir3+0Zdcml03pYqyU37aco9U+qWm9o9l/5PpPrncSn6p8uFVCtpe8fMyFcm/7XlLf7KJjA9oYClHg32v4WI3F+UXOcQrQlTpL+rpL21XVku5owHu57i+F8KSeHiwjZrTyLN3ZM99Xu6zmmltv4YuMVvSSXQz4AzoxUVaKSXUa7xOKrYqo6tecqk3vlOTlLxk2wAD6MUAAAAAAAAAAAAAAAEfPHPi74DKet+VmYcl09Oe3yN79ulr6/u9yQZpDxoUOXZ3NS9rcGXX5RzsaT/fpdPqY+I/RS+6/YWfkvPYzjBv/ALzQT7JVIp+psrmABTztkAAAAAAAAAG5fB7l8vaLBXT7yGXX19X/ADS63Ufr90n79FL81po2t4Uf/GThH+czP+i889qLtUh96C8ZJe8gOUEVLKsWn/2XFPwoVH7UWZAAuRw8AAAAAAAAAAAAAAAAAAAAAAAAAAAAAAAAAAAAAAAAAAAAAAAAAAAAAAaQ8aS//Def/neHf9KYRXMWPeMnHcuzfEEvaWDLr8ocRxJv9+ovX1K4StZivpr/AGI/5p/E6j8l7/8ApFRf97q/8DCgAEYbdAAAAAAAAANteE6aXaHhu36yyUvq/seQ9L9yb/cWXFYXhkyOXtFwhv8A4xdH/XwcuC/2yRZ6WLLf0b+8/YjmTypRtmdF9OGj6q+I+QABLGmgAAAAAAAAAAAAAAAAAADgxPtN3tcLwv8ACuIYdD9o2ZFcZy/ux5uaT6Pok2fjklv0Pejh6teWxShKcuiMXJ+EU2ZaDS2Z4yOzkG4viEpNb/o8LiFsXra6TrxZQe9dHzaa096aZzheMbs5Y+VcQlF/+cwuIVRX5zsxYw9/2vm/ZmP+U0b224X+9H4k3/8A5zNrbX5HirdP5LXt/kN0AxPsz3s8Lzf8E4hh5D91VkVylH6Sipc0X9GkzK0zIUk92pCVqFWhLYqwlCXRKLi/CSTOQAfp4AAAAAAAAAAAAAAAAA8nEeLVUx5rbK6orrzWTjBa/OTQPqMXJ2Su+hHrBq3jPih7P0bU+KY03HfMsdzzJRa9U1iwue+mta3vpo+D/wANPs3v/D7fz/R3E9fl/ge/9mvqY8sRSjo5xXbKPxJ6nyezSqtqnhMTJdMcNWa8VCxvAGrOCeKLs/kaUOKY0G3pLI8zDcm9aSWVCltvetJeu16po2Rw3i9V0VOm2u2LSalXOM4tP0e4trqesZxl6LT7Gn7COxOX4rC6YilVp/2lOcP88UesAH2YAAAAAAAAAAAAAAAAAAANK+MaaXZ7O29fFiLr83mUJL976L6m6jQ/jcyEuzuUv28jAivo1nY8/wDdFmPiP0Uvuy9jLLyZjtZvg1/3nDf8aBXeACnnbYAAAAAAAAANq+FJf/iThH+dzP8AovONVG2vCXjuXaThbX6ksyT/AC/R2ZDp9dzX7tnrSV6kPvw9U0QWfO2V4v8A/Exf/l6hZcAC5nDgAAAAAAAAAAAAAAAAAAAAAAAAAAAAAAAAAAAAAAAAAAAAAAAAAAAAABqzxR4vP2e4r0T5cWVvVb/oZRt2vquTafs0n01srKLV++Phfn8J4nT/AFuBl1/69E4+zT9/mvzKpq57SfzSf8Sv5kvPi+r3/M6W8llW+Br0/wBmspfx04pf8NnYAEObqAAAAAAAAAMx7meI+VxjhM//APZYVf5K7Irpb9vRWN79vqWrlRHZnJ5MrEs3rysvFt38vKyK7N/+6W6wmmk16NbX1TJ7LH5sl1r3/A508qtK1fC1OmFWP8EoNf52dgATRooAAAAAAAAAAAAAGL943eRicKxp5eZZyVx+GMV8Vl9jTcaqodOactPS6JJNtpJtfjairvce1GjUr1I0qUXKcmlGMU223uSS1ZkOdnQqhKyycK64RcpznJQhXFdXKUpNRjFLq22kiL/ev46MXHbp4VUs6zqpZM5OvDr6dHXqLnkv+75dbXpY9OJG3vr8QmdxuySsk6MJSTqwoNOC5XuNl8kk7rd6l1brg4x5IppznrAga+YN6U9F08e7o9vYdE8nvJvRpRVbNfpJ7+ZjJqC6pyi06jXFRagmt9SLM67c9+fF+Iy5snOvUPajHsni4sfTp5VUo+Z8075WyW2lJJ6MCjUltpJNvbeusm/Vt+7fzZ3BESnKTvJt9rN0YbDUcNBU6EI04rdGEYxXhFJdfW9XqAAfJknWVa2npbT2n7xfzT9n9UZ52G78+L8OkpYuffydN0ZE55WLLW9LyrZS8tderolTJ6ScmlowUH1GTi7xbXYY2Iw1HEwdOvCFSL3xnGMl4STXX1PVak4e6rx04t8lTxWlYM+usqEnZhy1r+k2lZjt9fVWV6XWyLaiSgws6FsI2VzjZXNKUJwkpwnF9VKMotqSa9Gm0yn42h3KeITO4LbFVzlfhOTd2FN7g963OiT26LVraUX5U9y5oNyVkJehmDWlTVdPHv6fb2ml+UPk3o1YutlX0c1d8zKTcH1QlJtwk+Ck3BuyvTRZwDFu7fvJxeK4teXiT5oTS54S5VdjWaTlTdGMpKNkN6aUpRfrGUotSeUk7GSkrrcc716FShUlSqxcZxbjKLVmpLemgAD6PAAAAAAAGvu9Xv14dweG8u5O5xcq8SrlnlXpdFy18y5YttLzLHCtP1ktPWmvEn4ulhyt4fwuSnlpct2ZqFlOE22pV1xbkrMmCXXng6q3KO/NanWoTcT4nbfZO66yd1tknKy2yTnZZJ9duT6/RJaUVpJJJJROIxyh5sNX08Pn7DcnJfyfVcfGOKx7dOk7ONNaVJR3pu6apxfC6c5Lcopxk9+943jb4rl80MOMOG0ttKUGsjLlHfTds4Kuttb5lCuTjv4bNx5noPi3Frsh82Tffky3vmybrcme/nzXTnLf7zygg6lWdR3k2/x0bjoTLsowWWw2MJShT60vOf3pyvOX70nbgAAeJMA9PCOK3Y75sa6/Glvm5sa63GnzfPmpnB7+uzzA/U7bj5lFSWzJXT3p6rwJC93Pjb4rh8sMyMOJUrSbm1j5cY76tWwg67HFdIxnXFy18Vm25KYfdZ368N4xHeJevNiuazFt1XlVLem5VNtygn08ytzrb9JPaKtz0cN4jZTZXdTZOq6qXPXbXJwsqlprcZLqtpuL9nFtPabTkKOOqU9Jecuvf4/E1pnnIHLsxi54eKw9XVqVNWpt9EqatFLrp7DW97Vki4AEWvDZ4ulmOvA4pKMMt8sKcvUYVZ0vRRsjFRjVkSeukYquxv4VBtVkpSw0qsasdqPz7zmfN8nxWU4h4fFRtLfGS1jKPCUJWV0+xNPSSjJNIAD2IQAAAAAAAAAAAAEbPHvxHk4Pjw/ruJUV/uhj5V+/41Je/qvmSTIl/wAoPmfzXhlW+v2u25r+5jzrT/8Aisw8W7UZdntaLryLpc5neFXRNy/gpzkvXFEKwAVM7LAAAAAAAAABvHwWYvP2ho6J+Xi5dvVb18MKtr5P77W/k5L309HEkvAXw7m4vk2/1XD5w/56+h/PX+J+T9PbrvKwqvVj2r1FV5VVebyfFSf9DUj/ABrYXrkiewALccUgAAAAAAAAAAAAAAAAAAAAAAAAAAAAAAAAAAAAAAAAAAAAAAAAAAAAAHk4tjc9VsPXnrnHXz5otf8AWVBywvKbq/q26/8Am24f9RcOVLd4nC3RxLiVLTXl8RzoLfvBZVvI/wApQ5ZL6NEJma0i+33G/PJTWtLF0ulUJW+66qfhtLxPgAAgjoQAAAAAAAAA/O+LcXyvT09P3T10f7n1La+7vjscrAwsmP4b8XHtj9VZVGS9fzKmCxvwa8dd/Z7DUvxY8snG/KFORaqV9EqHUv3dNLSJfLZWm49Kv4P5ml/KlhdvAUMR/R1nDurU5N+ujFd/WbtABYTmcAAAAAAAAAAAA+L2z7YUYGLdmZM+SmiDnNpc0nr0jCK6ynN6jGK6yk0isrvi738njWXLJv3CuLccbH3uOLU9aXTads9KVk9vcm0nyxijaPjL76Xn5v6Ox7G8TAnKNvLL4MnMXwz5tLUo4unWlzNea7drdcGo6lbxuJ25bEfRXrfw/wBeg6k5A8l45fh1j8RH6erG8U1rClLcl0SmvOk96i1DTz0wAIs24AAAAAAAAAAAAZx3O97mTwXMWVj6lCbrhlUP8OVRGe3H1jq2EZTdNjbUJye1KMpxlZp2K7Z4/EMWnMxbFZRfHmhJdGmm4zhOL6xsrmpQnCSTjOLTSaKkyRngz76Hg5q4dfYlh50tVc8mlj5kuWNajv4YxyP6Nx2t2+W1tzlzSmBxGxLYe5+pv48fE1Hy+5MRzDDvH4eP09JXlZenRitU+mUErxe/ZUoa+Zsz8ABZDlsAAAEWfF14k5Yalwvh9qWXNL7ZdHblhUzg3GuuSaUMmxShPfxOup75U7apLcvfr3rQ4Pw67LfK7mvKxK5PSvyZxl5cdLbcY6dk9LarhN9NbVYPE+J2X22XXTlZbbOVltknuVk5vcm9/XokukUklpJJROOxGwtiO97+z5+w3J5PuS8cfVePxUb0qbtTi1pKqrO7T3xgmnbdKbS1UZJ+SutJJJJJLSS6JJeyOwBXTpwAAAAAAAAAAAA4aJy+EPxISzEuF583LLrg3jXy/wAsqj61zl/xipPptLzK1zfFKFjINn74HEbKbIXU2SquqnGyq2D1OqcXuMl7dH6ppxktppptPJoV3RltLvXV+NxWeUOQ0M6wjw9WykrulUtrGpbR9Li904/Wj9pRauBBr7uL72K+M8Oqy48sbVunKqi9+RkwS54+z5ZKUbINpc1c4P3NgltjJSSktzOMMXhauErTw9ZbM6cnGSf7UXZ9vU1o1ZrQAA+jEAAAAAAAAABBbx+8bU+I4OOn1ow7LZR//wCi3lg/3fZ7F+9/QnSVn+K3jzyO0PEW/wANEqMav6Qqx6nJf8/Zc/b1/NuMzCVqVulpe/3G2PJphedzd1f6KjVn3ycaVvCpJ91+BqcAFaOqAAAAAAAAAAS6/k+OFfecUv10cMWnf1i7rNfwmRFJx/yfvC3Hhufc015vEXCP9qFWLjdV9OeyyP5xZn4FXrLv9jNd8v63N5HXX7box/xoS9kW+4lKAC0nIYAAAAAAAAAAAAAAAAAAAAAAAAAAAAAAAAAAAAAAAAAAAAAAAAAAAAAAK1/FzwH7P2gzvlkRx8pL2SnTGp/xnROT+siygg7/ACgPBuTO4deo9L8bIrlL5yxrKWk/9HI6fPT+TI3MI3pX6Gn46e82r5NcVzWcc1/S0asO+NqvspMiyACsnVYAAAAAAAAAJm/yfnandXEcJvrXZTlQT9OS6Lqko/PlnTzSft5kfmiGRujwd9pli8fxuZ6WVTfh/Ruzy74b+Xx40Un9dfrGXhJ7FWL67eOhTOWOB/LMnxFNb4w52Ol9aLU34xjKPeWQAAtpxkAAAAAAAAADX3f13kfonhWXmJc1sYxqoj+1kXzjTU31XwwlNWT11VcJtJtJPYJDr+UB7Zf/AJfw+L9fMzLkn7R+5oUl7xnJ3SXylV6mNianN03Jb7adr0LXyWyxZlmlDDyV4Oe1UXDm6ac5J9G0o7F+lq2pD2djbbk3KUm5Sk/xTlJ7lJ611k22/qzgAqB2qAAAAAAAAAAAAAAADh79m4tdYyi3GUJLqpRa6qUXpprqmkzkAFpfcX3jLivC8TM2vMlDy71+zkVN13L0XRzi5LotxlFpaaM9IdfyfXafS4lgv9urMivZucFj2a/dRVv93zJilvw1TnKak+/tWnzOKeVGWRy3NK+GgrQUtqC/q6iU4rr2VLZvxtwAB5OLcRjTVZbLpGqudkt+moRcn/uMkq8YuTSW96LtZAjxt9432viscOEm6eGwcJJN8ssq9Qna9ejddargpbfK5Wx+F8+48nq4txZ5F1+TLfNk33ZMt+vNkWzulv6802eUptWo6k3J8X/p6jubKMuhluCpYSH6uCT65vWcv3puUrcL2AAPEmAAAAAAAAAAAAAAACQvgo7zHh8VWDNvyOJJwXpqrKprnZXN+nSyuE6W+r5/JSSTk1YGVB8G45PFupyat+Zj213wSeuaVU1Pk37KeuR/STLb+CcWhkU031tSruqrtrkvSULIKcZL6OLTLDl1S8HB8N3Y/mc0+U/LFRxlLGwVlWg4zt/SUbavovTlCPXsN77ntABLmlQAAAAAAAAD8c3LjXCc5NKMIynJvolGKbbb9kkioztDx95eRkZUt7yb7b/i6SjG2yU4Rf1hFxj+4se8VvadYvAOI7enkUvDjrq95f3D1+UJye/bW/YrSIDMp+dGHQr+P+h0b5LMDs4fEYtr05xpR04U47UrdN3Uj2bIABDG8wAAAAAAAAAWSeELgP2fs/gfO+NuU37tZN07Y7/KEox/KKK1cyxqEmltqMmkvVtJ6S/NluvY3gSxcTGxkkvIoqq0vTcIRi9fvTJjLY3nJ9CS8X8jSnlTxWxgqGH/AKStKfdRp29tZH2QAWA5qAAAAAAAAAAAAAAAAAAAAAAAAAAAAAAAAAAAAAAAAAAAAAAAAAAAAAABHDx2dlvO4RXkJblhZdVnRbbruUsexN+0E7IWS/zUfkSPMM75uycs7hPEcSGvMvw74U7ekrvLcqW3p9FaoN9PTZ4V4bdOUelPx4essHJ/G/kWZYfEN2UKtPaf2JPZn/I5IqqB0qs2k+q2k9Po1v5r2f0O5TjuAAAAAAAAAAH74HFrceyvIperqLIX1PrrzKpKyG9NNxcopSW+sdr3PwB+rQ/GlJWkk09Gnus96faW79neOQycenIradd9ULYNNSXLZFSXVdHrej6JHPwN9vJZPCZYlj+Ph9zoh1W5Y04xtp6LWlW5WUJa/DVF7bbJGFypT5yCl0r18fWcM5zl0sux1bCS/Vzkk+mG+D74OL6dddQAD1IYAAAAAAFdnjXzvM7QW9dqrDxKV/Z07rmv9a5v95YmVreLbf6fzt7/AMRrf7Pkw1r6epF5i/ol95exm3fJjBPNZvow9S3fUpL2GoAAVs6jAAAAAAAAAAAAAAAAAAN5eCzjPldoKIb0snGy8fW+kmoLKT17tLGlr3ScvqWLFZnhT/8AGThGv63M/wCjM7f+z/aWZliy2V6bXRJr+WL95y95UKahmtOS+thqcn2qtiI+yKBq3xQ8a8js/wAUmnyueM8dS3pxeVOGKmn067uWtdd60bSNH+NPf/8Ajef/AJ3h2/y/SeH6fv1+7ZnYiWzSm1wjJ+EWUDk9TVXNMJTlulicNF9jrQT9RXOACnncAAAAAAAAAAAAAAAAAAALOfDHnc/Z/hO3twwqqfy8heSl+6MEisYsk8Im/wBAYO9/47W/2fOnrX0+RLZa/pH933o055UIJ5bSl0YiPrpVfgbkABYjmIAAAAAAAHEpa6v/AOwBDL+UB7ZN2cP4fGS5Yq3MvSfxc/SnHTSf4eWWQ9NPb5GtcpEUznvx7dS4lxbOyn+Dz50UL15cbHlKqnT+ViUr2nvUrZLekjBioYmpzlRy67LsWh2xyYy3825XQw0laShtT/tKjc5J9Oy5bF+iKtoAAYxaAAAAAAAAADNe5Pst9t4vw3Ha3GWXVZZ02vLx39ompL9iaq8t/wB8tTIDeBDsvK3i9+U193h4Uo/8tlWQjVrpp6qpyN9drcPmT5LHl0LU3LpfqXzucv8AlOxvO5lDDp6UaUbronVbk/GHN91gACVNPgAAAAAAAAAAAAAAAAAAAAAAAAAAAAAAAAAAAAAAAAAAAAAAAAAAAAAA4aOQAVW9+HZb7FxjiWMk1GGVKcN+8MiMcmGvblSuUUl6a17GEkq/H32JVeVhcRiklkVyxLX1+Kynmtp+m/Llcm/VqMV6Q6RUKfiKexUlHr07Hqjtvk3mCzDLMPiN7dOMZ/2lPzJvvnFyXU0AAY5ZQAAAAAAAADc/hE7wXgcaohJpUZ6eJdvSUZalPGs+rjcvK1vXLkTfVxiWQlPEZtNSjJxlFqUZx6SrlFpxnF+0oySkn7NItI7ie8X9KcKxMuTi7pVRryVD8McmtclySfVRc05RTbajKPV+rnsuq3Tpvhquzic8eVDKNmpSzKC0klRqW/bjd05PthtQ6lCK4mfgAmjQwAAAAAAK7PGxguvtBZ00rcLEuX9pN30t/wCtS1+4sTIc/wAoD2Me+H8RjH8PmYdzUeupffUOUvaMJK+KXXcrvbruOx8dqk+pp+73mzfJ1i40M5hGWnO06tNP7VlNeLp7K62iHoAKwdZgAAAAAAAAAAAAAAAAAG8fBbwTzu0GPPXTFxsvI37JutYqW9erWTJrWn8L9k07FyHP8n12W2uJZz3+OrCjtdE4QWRZyv5tXVc3z1H5Exi0YCGzSXW2/d7jk3yi4tYjOZQW6lTpU++zqPwlVa7gas8UXBPtHZ/ikEm3DG+0JLq5PEshlJJae23Sktdflp6ZtM8nF+Gxuqtpmk421zrkmtpqcXF7Xv0ZmzjtRcelNeKKBl+J/JcVSxC/V1adT+7nGXuKggenivCHj3XY0t82NfdjS5vxOWPbOmW/ruD2eYpbVtDu+MlJKUdU9U+p7gAD8PoAAAAAAAAAAAAAAAFnPhjwXX2f4Ttac8Kq781evOT/AHxmmVo8G4FZlXU41W/MyLa6INLmcZWyUOfXTahvna+UWW38D4TDHoporio10VV01xXRRhXBQjFL5KMUkTOWx86Uuq3j/oaM8qeLisPh8N9aVSdRrojTjsq/a6jt91nuABPnOQAAAAAANS+KTvFlw3g2VZVLWReo4uP6bjO9qE7Fv1dNLsuSaacoRT6SNtFf3jb7yXl8UjhVzTx+Hw1JJ7Usu3rbJ+33VXl1x11Tlcn+LSw8XV5um3xei7X8i8cjMo/OeaUoSV6dN87UutNim01F9U5uMGuht8CO1daSSXRJaS+SR2AKmdkAAAAAAAAAAA/TFw5WThVD+ktnCqvfVOy2SrgtLq9zklpA/G0tXoT28CnZVU8HllNNSzcq6fX3hRJ40de6i5VTkl775v1iRx8LsJ2Vhg4WLh1rUMaiqmP15IKLbfu5NNtvq223vZ90uVGGxBR6EvHj6zhzPMf+cMwr4pbqlSbjffzd7QXdBRXcAAexBgAAAAAAAAAAAAAAAAAAAAAAAAAAAAAAAAAAAAAAAAAAAAAAAAAAAAAAAAGo/FP3ffpHguVCMea7G1mY/wA1bRGW0vl5lMram9dFY36pFaUZb6r3LiJRTWn1T6NP0aKqe+Du+/RXE8vBSarqs5sfeuuNb8dPo/1IvytvTk629LZBZlT1U12P3e86H8l2abVOtl83rFqtTX2ZWjUS7Jc20lxlJ9JhwAIQ3yAAAAAAAAACSXge70FiZ9vD7Zap4hyyp3pQhmVRa1v15sipKHXo3TWlptKUbT9MXKlXOFkHyzrnCyuXvCyuSnCS+sZxUl9UetKo6c1NcCGzjLKeZ4Krg6miqRsn0TTThL92ai7aXV47my4QGAdxfelDjHDaMxJRtadeTWv8VkVvlsS3+pJrzK371zi+j2ln5cYyUkmtzOIsVhamFrTw9ZbM6cpQkvtRdn27tGtGtVoAAfRigAAA1/3893H6V4Vl4a0rZQVuPJ+kciiStp3rb5ZTgoT11cJyS1vZsAHzKKknF7mreJlYTE1MLWhiKTtOnOM4v7UJJr1rdxKeJwabUk4yi3GUX6wlF6lF631i00/qjgkV4y+5f7Bm/pHHrf2TPnKV3KlyY2Y/invX4Y5XxWptadqt3Lc4RcdSnVabpycXwO38pzOlmeEp4uj6M43a4qS0lB9cZXXWrSWjQAB5EuAAAAAAAAAAAADrJv2Tk/SMYrmlOT6RjFLq5SekkurbSOxIzwY9zUs3OXEb4fzTBlupy9MjN6ciit9Y48W7JNrXmOrTbhPl9aVN1JKK4kRm2Z0cswlTF1vRhG6V7OU90YLrlKy42V5PRMl93F93K4VwvFw2l5kYeZkNdefItfmXPb29KcnFLb1GMUuiRnwBcYxUUorclbwOIMViamKrTr1XedSUpyf2ptt+tgAH0YpX542+7n7HxWOZCOqeJQc20nyxyqFCFqb9Iuyt1zUVrmcbZdXz6j0Wkd+vdZHjHDb8R6jbrzcWyW9VZNabqk2uqhJt1z11dc5rrvRV/wAR4bZTZZTdXKq6qcq7a565qpxepRem09P3i3FrTTaabrGOo83U2lulr38fidZ8gc8jmOXRw839Lh0qck3q6S/RyXGyiube+zjd22kecAEcbNAAAAAAAAAAAAAB++Bw+y6yFNNcrbrZxrqqgtztsk9RjH0XV+7ajFbbaSbQ/G0ldtJLVtuysuLb0S63uN/eCfu1eXxT7dNfccNi5r5TyroSrqj9VXXKyxp6+J0tb1JFgZr7uL7p6+DcOqxI6la27sqxf47JsUeeXz5YqMaob21XXBbejYJbcLR5qmk9+99r+WhxryvztZvmU60HenBKnS/s4N+d+/Nynrqk0nuAAMspQAAAAABhffF3kV8J4dk5s9N1w5aYe918/hprX96bW/RKKk20k2qrr8mc5SnZJzsslKyyx65rbLJOdk5a0uac5Sk9JLbJDeNPvb+3Z64fU08fh0vil7W5k4ascfZxprn5Kf7crl6JOUdisY6tzk9lbo6d/H4f6nWPIDInluX8/UVquI2ajvvVJJ83HqupOo93pKLV4AAEcbPAAAAAAAAABufwi9gFn8aolOO6cFfbZ/Lza5JYyf5XatTT9aUuqbNME8/Av3d/ZuG25846t4jYnHeumLjucKEtb6TlK63fR6simvhM3B0+cqroWr7vnYo3LTNPzdlNacXadRczT6dqrdSa4rZpqpJPhJLpRJUAFrOOAAAAAAAAAAAAAAAAAAAAAAAAAAAAAAAAAAAAAAAAAAAAAAAAAAAAAAAAAAAAARA8e/dsnDF4vWutfLh5L+dc5yljSf1hdOda6Lfnrb+GKJfmOd4nYmriWDk4N63XkVOH1hNalVZF9dTqtjCyMl1Uop+xj16XOwcfDt4Fl5OZs8qzGjitdmMkqiXGlPzZq3FqLco3+sovgVNA9XFuE2Y912PctW49tlFq00lZTOVc9J9eVyi2vmmn12eUp52zGSklKLumk01us9zQAAPoAAAAAAAAA3V4U++hcI4hyZFnJgZuq73KWqse1NeTktt8sIxW67Z6S5JRlJpUrVjxTrOCaaa2mtNP0afsT/8AB134viOI8HKmnm4UUoyb+LLxVyxha9/4ytvyrNbT1CfTzOWM3l9f9VL933r3+JoTyk8nNtLNaC1Vo10v2dFCp3fo5dXNtKykyRYAJ056AAAAAAPidtOx2PxDFuw8mCnTfBwkvSUd/hnCXrGyD1KE1pxkk16FZXfD3Q5PBcuWNfzTre5Y2Ty8sMur59NxVsN8tkOjUviSUZwbtQMW7x+7XE4rjSxcyvzK21KEk+W2ixfhsqmusJrbXTpKLcWpRk08HFYZVlppJbn7n+NDYXJHlXUyOs4VLzw9RrnILepbuchey2ktHG6U42Ts1FxqgBs3vr8PubwSbdq8/ClNRqzYJ8nxPUIZC1qm5v4f6uctcstzVcdZFYnBwezJWZ1jg8bQxtGNfDTjUhLdKL07Hxi1xjJKUXo0mAAfBmgAAAAAAA2f3JeHzN43NSqXk4UZ8t2ZNfDqP44Y8WtXWr8P9XCW+aTcHB/cIOb2Yq7MLGY2hgqMsRiZxhCO+Unp2LjJvhGKcpPRJs+V3Od0GTxrLjjUbhVFxlk5PLuGLU36/J2zSarg38T238MZMsz7F9jcfh+LTh4taropjywivVttynOb9ZWWTcpzm+spyk31Z4u7nu3xOFYsMXDr5K49ZSb5rL5v8Vlk31lOT6+yiukVFJJZQWfC4ZUVd6ye9+5fjU5N5Xcq6meVlCneGHpt83B73Ldzk7abTWkVqoRbSd5ScgAM418AAACLXi68NrzFLimBXvMhFfa6YR+LOrhFRVkUussiqMVFdG7K0o9XCtEpQeNWlGrHZl+H0k3k+b4jKcVHFYd+ctJRfoyg7bUJLinZdaaUlaUU1Tsmck5PEh4Q1mSnn8KUK8uT5r8ZvkpzP2p1vqqsj0euldmnvllJ2EIuI4FlNllN0J1XVScLarIuFlU17Si+q6aafpKLUk2mm6tXoSou0u58Px1HX+Q8ocJnVDncO7SSXOUm1txfWuMb+jNebLqleK/AAGMWYAAAAAAAH78PwLLrK6aYTtutkoVVVxc7LZP9WMV1fRNt+kYpybSTaH42km3okm23ust7fQktW+B5ycfhC8OEsOK4rn1uOXZBrGx5rTwqpa+8nHrrItS99SqrfLqMpWbeHDwhRw5V5/FYwsy4uM8fGT56cJr8M7OiVuQt7966pJcvNKPmOUxP4PB7Pnz38F73+NDnblvy3jiIyy7LpXg9K1ZbpLjTpvjH9qf1/Rjem25gATJokAAAAAAGpPEt3zR4Pw6coTis3JjOnCg9OXmaSnfye9eMpRnJv4eZ1wb3ZFPaPE+J1012XWzjXVVCVlk5PUYQgnKUm/ZJJsrC79e9yzjPELMmXw0VuVOHX71Y6l0nL/zl+lZNLpH4IfF5fNLAxlfmoWW97vj+OJsbkRyd/O+NU6q+gotSqdEpfUp9e01eX9WpK6bjfX0pNttuUpNuUpSblOcm9ylKT25Sk225Nttttt7ABVjroAAAAAAAAAAAA+t2Q7K2Z2XjYVT1ZlXRpjL9hS25z0+j8utTs0+j5OrXqrYezvAasXHoxqYqFOPVXTVFekYVQUIr9ySIaeA7uzVuRkcWtjtYreLi7T+G+ytSvsjvo3GmyNSkuqVtseu3qbhY8vpbMNt75exfP3HMXlLzf8px0cFTfmUI3l0c9USb7dmGwtd0nUXaABKmnAAAAAAAAAAAAAAAAAAAAAAAAAAAAAAAAAAAAAAAAAAAAAAAAAAAAAAAAAAAAAAACCvjo7r3j5tPE6q35OavKyZRS5a8qqK8qUtLe76U48z3HeOk9OUeeMJax3ud3kOK8OysGbUXdVJVWSipqi+PxUXcr1vy7VGWtptJra3tVY8V4VbRbZRdB13U2Sqtg9/BODcZLqltbW4y0uaLTXRorWPo7E9pbpa9/H4nVnk9zv8AL8vWFqP6TD2h1ui/0cv3VelpuUYt6y18oAIw2oAAAAAAAAAD6/Y/tZdgZdGbjNK/Gn5lfNvlluMoThNLTcLK5ShJfsyeuqTXyAfqbTujzqU41IOnNKUZJxlF6pxkmmmuKabTXFFrPdT3l0cWwac2joprVlb/AB490UvMqn7bhLomtqUdSTaaMvKxvD733W8EzPM07MTIlXDMpUmvgUtfaK46kndRGUpJJJ2xXluUdxlGyzg3Gasiqu+iyFtN0I2VWVyUoWQktxlGS2mmi1YXEKtHX0lvXvOQOV3JmeSYrzE3QqNulLo4unL7Ub6N+nG0lrtKPtABmlCAAAAAAPxzMOFkZQsjGcJpxlCSUozi/VSi9pp/JkXu9TwLYt7nfwu77HbLcvs1n3mE5b393pebjqX4dRc64rXLWtNSlODxqUYVFaSuTmVZ3jcqqc5g6koXttR0cHb9qErxl2tXXBoqz7adw/GOHuX2nAu5IvXnUJZVE/7UZU80ow992wqaXrGJr+m+MluLUl8001/sLi2jD+0/c5wnNlz5fDcG+xrXm2Y1MrtJ70reTzEt+ykRU8t/Yl4/FfA3HgPKm7WxuHu/2qM7fyVL+PO93RVQCyvM8J3Z+f8A5Prh/m52w/3TGH4Tuz8P/J9c/wDOTts/3zMf83VOmPi/gT//AEoZZa/NYi/Rs0vbzpWjZal1bSX1ejPexvcVxjiHL9l4ffKEml51yWLRBPXxud7hKUEnzbphbJx/DGfROx7sv3O8Jwpc+Jw3Cx7F082vGpjdr5ebyeZr6cxl6RkQy39uXcvi/gQGP8qjtbBYfX9qtO/8lO3jzvd0xZ7rPAri0OF3FLftti6/ZoLkwk3/AFm/vb+VbjqThXLbbrfw8socTEhXGMIRjCEUoxjFKMYJeiSWkkvkj9gStOjCmrRVjTma53jc1qc5jKkp2vsx0UFf9mEbRj1tK74tgAHsQYAAAAAAAAANfd7HcXw7jNfLl1atjFxqyqWq8qjf7M9SUo7SbrsjOuWluLNgg+ZRUlaSujLwuLrYSqq2HnKnOOqlFtPxXTua3NaNWK/O8zwUcVw254KXEqN+kHXRl1LXrOuycK7F09aZ8+2kqmk5LQ3HODXYs/KyabcezbShfXOmUtevJzpc6XzhzL6lvh4uLcEpyISrvpqurktSrtrhbCS+UozTi19GiKqZdB6wdurevj7Tb+WeU/GUUoY2lCslptxfN1O12UqcrdEYU78XfUqEBZzm+GPs/Zt/onCg3/U1LHS/JU8kV+5Hyv8Agh8A3v7D771513L+Wuf0+hiPLanTH1/AucPKhlrXnUsQv3aT/wDVRW2evgXBrsqzysam3Is2k4UVyulHm9OfkT5E9finyr6ll2D4Y+z9bT/ROFNr+uqWQn+au54v96Ng8I4HRjwjXRTVRXFajXTXCqEUvRRjBRil9Ej7jlsvrSXd87Efi/Knh1H/AGbD1JS4OpOMEuu0Occuy8e0gV3aeCfimW1PO5eG0fKbhdmTX9mquUq60/VOyxy6NOpbTJhd0/cXw7g1fLiVN2yWrMq5qzKu/vWcsVGO+vl1RrrTb1FbZsEEpRwtOlqlr0vf8F3Gp875X5lm6cK01Cm/1VNOMP3rtzn0+fKST1SQABllKAAAAAAABH/xV+IdcKoWJiyi+I5MXrUlzYFElJfaZLTfPKUeSqL5dvmntqpxl5VKkacXKW5fixK5XllfMsTDC4dXnN9yit8pPhGK1b7km2k9SeNTv3V85cFxZbprlCWdYvSy6uasrxo/ONUoxssfo58kevLYiKRx+9tttttuUpNvbcm9uUm9tybbbbb3s5KlWqurJyf4XQdn5LlFHKMJDCUN0dZStZyqO21N79XZJK72YqMbtRQAB4k4AAAAAAAAAD9cPh9ts4VUVu262ca6a4/itsm1GEE30XNJpOTajFbbaSbX5EnvA33TyyMyfFbYryMNSqx1KP8ASZdijzWxb9FRS5Q3HfNO59Y+U1L2o0nVmorj7OLITOs0p5XgqmMqW8yPmxf1qj0hDTXzpNJ23RvLcmS+7qu7+vhfD8bBr01RWlOaSXnWy+K216S62WOUm9L19EZYAXFJJWXA4hr1516kq1V7U5ylKTfGUm233tgAH6eAAAAAAAAAAAAAAAAAAAAAAAAAAAAAAAAAAAAAAAAAAAAAAAAAAAAAAAAAAAAAAAAIQeOjujVF9fGKYNQypwozOVNqN6hy0Xy9oqyFaok96dipWlKxuc3z4/a7srTnY1+JkR5qb65VzXulJdJRftKL1KL9mkzHxFFVYOPh2/jQtHJvO55Nj4YpXcfRqxXGlK20utppTj9qMSo8H3+3nYXI4Zl3YWTrzaJa50tRvrfWu6C66jbHUtbfK+aO24tnwCoNNOz4HadKrCtCNSm1KMkpRktzjJXTXU07gAH4eoAAAAAAAAAJBeFjxJfomxYWbP8A8G2yk42P/wAnXTlzOb/9Gsk5Oz+rm/M/C7HGPoPWlUlTltRIrNMsw+Z4aWFxMbwl4qS3Ti9dmUb6OzW9NOLadw1diaTTTTSaae00/Rp+6fzOxBXwo+Jz7DycM4hY/scpKOLfLr9hbSSom/X7M2vgfXynJptV8vlzohNNJpppraa6pp+jT+Ra6FeNaN13rr/HE475QZBiMlxLoVtYu7p1ErRlDpW+zW6ULtxfFxcW+wAMgrAAAAAAAAAAAAAAAAAAAAAAAAAAAAAAAAAAAAAAAAAAAAAAAAAAAAANd99XfVi8FxXdc+e6e442NF/eZE/+zXH1nN9Eui3Jxi/mUlFbUtEjLwmErYutGhQi5zm7Rit9/clvbdkldtpJng8QPftRwTE53qzMvU44ePvrZNJbss940VOUXZP32oR3KcU62e0HH7su+7KyJu2++bstsfTnlpRWl7RjGMYRj+rCMV7Ht7b9tcniOVbmZc/Mutf+hVBNuFNS/VqqUnGEer9ZNylKUpfDKtisS60upbl73+NDrvkpyXpZHh9bSrzS52p6+bhxUIvvnLzpW82MAAMIvQAAAAAAAAAAAB7uA8DtysijFojzXZN1dFUdN/HZJR5ml15ILdk3+rXCcn0iy1Hux7v6eF4OPg0L4KIalJ/ittm3O22T6blZZKU30SW9JJJJRs8DXc5KEbOM5EVu2PlYMWuqq2/OyP8AlWlXDp0hCUttWpRl4WPAUNiO2973fd+e/wADmLyjcoPyzFLL6LvToO82no69rP8Au03Dqm6nCwABKmnAAAAAAAAAAAAAAAAAAAAAAAAAAAAAAAAAAAAAAAAAAAAAAAAAAAAAAAAAAAAAAAAAAAAACN/jL7kPt+J+kcavmzcKHxqEW7MvEUnKdeo7c5Uc07q48sn/AEkI6dr3AaMi4hors8WXcd+ic37TRF/Yc6dkoddxxch7sso/swmnKymPXUY2RWlXFEFj8P8ArY/vfH4nQvk45SbS/NOIlqtqWHbfDVypd2s4dW3G+kUaLABCG+wAAAAAAAAAAADhokn4ZvFZLhzhgcSnKeA2o05MpSnPhrb6Rsb25Ynol13jJejr/oY2g9qVWVKW1Eh81ynDZrh5YbFR2ovc1pKMuEoPXZku9NXjJSi2ncFiZkLIxnXKM4TSlCcJKUJxa2pRktpprqmnpn7FcXcB4n8ngrVFysyuHNf4PHld2K9758WU5QWntqVE5qD+FxdTUvMsG7KdrcbOohk4l0L6bF8M4Pa37xkvWMl7xklJe6LPh8TGstNHxX43o5K5SclsVkdW1Tz6Um+bqpaPqkvqTtvi9Hq4OSTZ9cAGWUwAAAAAAAAAAAAAAAAAAAAAAAAAAAAAAAAAAAAAAAAAAAAAAEf/ABD+KujhSli4ijk8RcZLW1LHwJaWpZOpRlKe3uNEOr5XzSqTi5eVSpGnHak7L8biVyzK8TmVdYfCwc5vuSXGUm9IxXS+pK7aTy3v28QOJwSjc9X5lif2fDjNRnY/6yx6k6qIv8Vji9/hipyai65u2vbfK4jkzy8y123Wfmq6o+1VMG5KqqPtCL9W5NylKUpeLj/aC/LunkZV0777Xuy2xrmnr0WoqMYxXtCEYwj7RR4Cs4nFSrPoXBe9/jQ6x5L8lMPkdK+k68l9JVt/JTvrGCf70350t0YwAAwi9AAAAAAAAAAAAAz7uO7p7OM8QqxIqSoj97l2rmSpx4+q5lrVl0tVVrmUuspraqlrBKMeU5RhXGU7JyjCuuK3O2ybUYQiveU5NRS+bRZj4de5WHBcBVS1LLvauzLE+ZO1xSVcHpaqqiuSKSW3zTe3OTedhMPzs9dy3/Dv9hQuWPKNZNgnzb+nq7UaS4p286o+qCaa6ZuKs1tW2TwnhVdFVdFMI1001wqqrglGFVdcVGEIpdFGMUkkvRI9YBaUrHH0pOTcpO7erb1d3xfSAAfp8gAAAAAAAAAAAAAAAAAAAAAAAAAAAAAAAAAAAAAAAAAAAAAAAAAAAAAAAAAAAAAAAAAAAAAx3vB7C0cSw8jCyE/KvrcHKOvMpl+pbW5KSVlUtTg3FrmitpraeRA/Gk1ZnrRqzozjVptxlFqUZLepRd011pq5U73kd32RwvNuwslfHU9wmlqGRVLrXdD+zNeq2+WanF9Ysxkso8SfcNDjeIvL5a87G3PFtaXxpr48ayXR+Vd0671CxVz1LlcZVuZmFZXOVdtc6ra5OFlVkXCyqcekoTi+qkn0f/X0KrisO6Mup7vh3HYfJPlJTzvCKTsq9NKNaHXwnFfszs39mV4vcnL8gAYReAAAAAAAAAAAAAZn3Wd7udwa/wA7DsXLNxd+PZt4+Ul01ZFNOM+XpG2Gpx6b50uR4YD6jJxd1ozHxGHpYmnKjWjGcJK0oyV011p9eqe9OzVmkWadyviKwONQ5apeTmQhGV2JZtTjv1lTNpRyK01+KvbjuPPGtySe1CnzEy51yjZXOdVkHzQsqnKq2uS9JQsg4zhJfOLTJY9ynjgnB14vGY88Ncq4hX/SKW0o/aMeMNSTW+a6ppqWt1acpwnsPj1Lzamj6eHf0ezsOduUnk5q0NrEZXepDVui3epFcdhu3Oroj+lWiXOO7JpA+fwHtBRlVQvxrq76bFuFtU42VzX0lFtfRr1T6M+gS6dzSc4ShJxkmmm001ZpremnqmuhgAH6fAAAAAAAAAAAAAAAAAAAAAAAAAAAAAAAAAAAAAPNxLiddNcrbbIVVwTlOyyShCEV6uUpNJJfNs1b3zeJbh3B4zhKccnNUdwwqZrzOZr4PPmlJY1b9XOcXLl24wseouCfe5368Q4zZzZNjroj/R4dMpLGq/tTXTz7PZWWL4V+GNfNLmwK+MhS0Wr6F7+j2mxeTvIjG5varNOjQ/pJLVr+rg2nK/7btT32k2tl7s79/GrO9SxeCylXS+lmdKE677F+zjV2KMqov3tsjztbUYx2pkUfn6ttttttuTb25Nvq5Sbbbbbbbb3s5BXataVV3k+7h3HT+UZLhMoo8xhIbK+tJ2c5NcZystp6uySUY67MYpgAHgTgAAAAAAAAAAAAAN2eGHw/y4zledkRa4dizhK5yi+XOsTcliwb0nHone9SSrkq9J280PSnTdSSjHeyNzHMKGXYeeKxEtmEFd9Le5RiuMpOyS6Xq0rtbc8FfcI48vGsuLUpRnHAqklpQlpSy5JrmU5pOFPVLypzlqXmVuEwDpTSopRilGMUlGKSSiktJJLokl0SXody20aSpRUV39pxjnuc1s4xksVW0vpCN9I003swXTa929NqTcrK4AB7lfAAAAAAAAAAAAAAAAAAAAAAAAAAAAAAAAAAAAAAAAAAAAAAAAAAAAAAAAAAAAAAAAAAAAAAAAAAABF/xdeG95sJcUwYbzKoL7TTH/LqYb+KEfT7RUntNdbYLke3GvUoAeNWlGrHZl+H0omsnzfEZTio4rDu0o6NP0ZQfpQkuKfinaUbSSap2TOSW3i38Mflu3i/Dam4Scrc/GglqD6ynl0x6dH1lfVFPb3ZFb8xTiQmVStRlSlsy7n1HZGS5zh83wscTh3o9JRbW1Ga3xkvWnulG0lv05AB4E8AAAAAAAAAAAAAAAZV3e96fEOFWOzAyZU80lKyppWY2Q0tfe0y6PaSi5wcLdJJWR5VqZXdP428DLcKeIR+wZDUUrZPmwrpvpqNv4qW3rSuUYvmSU5voQLBlUcTOluenQ93y7ioZ5yVy/OFfEQ2altKsLRqdV3ZqolutNSstIuO8uDx8mM4qUJRlGSTjKLUoyT9Gmtpp/NH6lVHdv3wcR4TJvByZVwfV4815uJN7bbdLaUW225Sqdc5e8npalV3cePTFsiocVoliWLSlfjQsycaXtzeVFTyK9+vIo3cq18curU5Rx9OekvNfXu8fjY0HnHk7zLBNzwv+00+GwrVbddK7b7Kcqj42RK0HxeyvbTEzq1dh5NOTW/SdNkbEvmpae4yT6OMknFpppNNH2iRTT1Rq6pTnSk4VE4yTs4yTTTXBp2a7GAAfp5gAAAAAAAAAAAAAAAAAAAAAA4lLXV//YA5BqXvF8UnBuGylVZlK/IX+T4sXkWRet6snBOmlvo0rrISae0pIix3k+NvimW514UYcPx2mlJffZsk/eVr+6q6dOSuuTT6+bLprDq4unT3u76Fr8kXjKORmaZnaUKTp03Z85VvCNnximnOa64Rkulomb3kd8XDuE18+bkwrbXwUx+8yLn8q6Y7nL89KKSbbSTahp3t+NPPzt1cPUuHY7XxS+Cebb/Zdi566Yteqp5p/K1LalHnIvlOcrJylZZN7nZZKVltr1rmnZNuc5aSW5Sb0kdCErY6dTSPmrq3+Pw9ZvnIuQGX5c1Ur/7RVWt6kVzaf2ad5J9tRz3JxUGJSbbbbcpScpSk3KU5Se5SlJ7cpSbbcm222229gAjjZ4AAAAAAAAAAAAAAAAMl7uu7rK4rl14eJDmsl8U7GvusWpNKV1r2vhjvpBPmnLUV7uP1GLk7LeeNatToU5VaslGEU5SlJ2Sit7bPr9zHc9kcazI41O4VQ1PKyNbWNTv230lbZpxri+m9ya5Yy3Zn2O7I4+BjU4mLDy6KIKEI7cpPXrKcnuU5ye5SnJtyk236nxe6bupxeD4cMTFi3157rpa83KuaSlbY0l1ekoxWowgoxikopGZlowuGVFXfpPe/cvxqcj8sOVU87xGxSvHD02+bi9G3u5ya6WtIr6kdFrKbYAGca9AAAAAAAAAAAAAAAAAAAAAAAAAAAAAAAAAAAAAAAAAAAAAAAAAAAAAAAAAAAAAAAAAAAAAAAAAAAAAAAAAOJRTWn1T6NP0aIN+KXwsPEdnEuGVt4snzZGJVD/AunxXUxj1eO2k51qLdTbkvg2qpynEo76Pqn7fMx69CNaOzLufWWbIM/wATkuJVeg7xdlUpt+bKF9z6Gt8ZrWL6YuSdO6ZySo8TvhOljeZxHhVW8b8eRhVqUrMduT5rceK3zU9U5Ux06km4KUdQhFWE00mntPqmuqa+aKrVoypS2ZfhHX+T5xhs2w6xOFldPSUX6UZ21jNcH4qS1i2jsADxJsAAAAAAAAAAAAAAAAAA9PC+KXUT8zHuux7On3mPdZj29PT46pQn029dfdm8+w/jX4ziRUL/ACeIQS0vPXk3+vvfVHT0uicqZS93KTNBg9YVZw9FtfjwInH5Tgswjs4ujCouDlHzl2TVpx/dkuHQT37EeOrhWQoxzK78C16T5l9px962+W6qKlyr05raad/LqjdHZLvS4bn7+xZ+JkuKTlCm+udlafpz1qXmQ3p9JxiVQHXkW4y/Wi9xl+tBr0cX6xa+aaZIwzGovSSfqfw9RrPH+THLqzcsNUq0W9y0qwXdLZqeNVvjruLigVV8A77OMYqUcfieZWl11KxZC/hkxuWvprp6Gyeznjd47TpXSxMyK9Xbj+VdL/Tx5VVL/wBXZmRzGm96a8H77+oomK8l+Y07uhVo1FwTc4T8HBwX94WFghrwb+UGl/lPC1/+3yeb/wDlqh/D/aZJg/ygvDX/AEnD+JQ+sFh2xX165dctflFv6GSsZRf1vU/gViryGzyk7PDt/dqUZf5ajuSmBHzE8c/AZa55ZlW9dJ4ds9fPfkecun5/ls+pR40OzsnpZtq9/iwc6C/jLGS39PU9fyil+1HxRFT5L5xDfg8T2qhUkvGMWvWbvBpWXjG7PJN/bpdOvTEzG/3JUbf5LqeG/wAbnZ1LplZE/pHAzk1/r48V/tH5RS/aj/EvifMeTOby3YPE/wDhq3/sN8AjZxLx7cGh+DH4lf8A5ujHgl+fn5VT/gn6+/Ux7M/lB8Xr5XDMtv2d1uPBfvVc7f8AeebxdFfWXr9yJClyLzupuws19504eqc4v1EtAQW434/eIzTWPg4dD/VlbZbk/wAYR+z6/JWM1vx7xWdoch7fEZUxf+LxqMemC/KTqnf/ABuf+9vwlmFJbrvsXxaLHhfJpm9X9K6NL79VyfdzMai8ZLrsWV5ebCuLlOcYRS25TkoxSXq220kl8zVXafxW8AxU3+kachrpy4b+2vfy3RzwX13Ja99FcPH+0ORlvmysi/Je+b7+2y6MZL3jCcnGD/uxR4DDnmUvqRS7dfZYuuB8lmHjri8ROe7zaUYwXZtT5xvt2Y2Jddsv5QGxuUeH8PUY6aV+Zb8e+qTWPSpR5fRreRt704x0R+7dd+PFuJS3lZ1/J7UUTli4sd+q8mqSVi9075WyW2lJLoYMCPqYmpU9JvsWi9RsvLeTGV5baWGoQUl9eV5z7VKo5ON+Oxsrhax1rrSWkkkvRLokdgDGLQAAAAAAAAAAAAAAAAAAADJe7ru6y+K5UMTDr5rJadk5bVOLX13bdJJ8sejUV+KcvhS/E4/UYuTst541q1OhTlVqyUYRTlKUnZKK3ttn59gewOVxPKrxMStzsm1zS0/Lx69/FddL0hXBdevWT1GKlKUU7I+5TuUxeCYqppSsvmk8nKcVG3Kmttb1txqhzNV18zUI+8pOUpO5TuUxeCYqppSnfYovKyWtWZVkVrem5clUW5eXUnywTb6ylOUtiFlwmEVJbUvS9nUvicq8seWM83m8Nhm44aL7HOS+tLiop6wg+qUltWUAAJE1eAAAAAAAAAAAAAAAAAAAAAAAAAAAAAAAAAAAAAAAAAAAAAAAAAAAAAAAAAAAAAAAAAAAAAAAAAAAAAAAAAAAAAAAcERfEn4QfMdvEeEV6tk5WZGDHSjdL1nbirooWy6ynVvlsl1jyylLzJdg8atGNWOzL5k/kud4rJ8QsRhZW4Si9YSjf0ZLS66GrSi9YtMp3lFptNOLTalGScZRknpxlFpOMotNOLSaaaaWgWD+IXwo0cV5srD8vF4hvmnLl+5ztR1y3qOnGzSio5CUpJRSlGa1ywH4/wBnsjEunj5VNmPfX+Oq2PLJb3qSfWM4S0+WyuUq56fLKWir18NOi9d3B/jc+o6z5PcpsJndHaovZqRS5ylJ+dHrW7bjfdOK6FJRk7HgABiluAAAAAAAAAAAAAAAAAAAAAAAAAAAAAAAAAAAAAAAAAAAAAAAAAAAAAAAAAAAAAAAABuzw/8AhhyuMyjkXc+Lw5OMndKDVmdHe3DFUmvhaS3ktSrSkuRWtS5PSnTlUezFXZG5hmOHy6hLEYqahCPF72+EYpayk+EUm973JtYf3PdzGZxrI8nGjyVQa+0ZU0/Jxk+uvbzLZLrGqL3rTlyx03Yz3U902HwfFji4kH1fNddPTvyrdadlsklt9NRikoQilGKikkfa7IdjsbAx4YuJTCiivfLCC0m29ynJ+spzk3KU5Nyk222z7JZsNhVRV3rLi/cvxqcp8quWGIzufNQvTw8XeNO+ra3TqW0b6IrzYbltO8mABnGvQAAAAAAAAAAAAAAAAAAAAAAAAAAAAAAAAAAAAAAAAAAAAAAAAAAAAAAAAAAAAAAAAAAAAAAAAAAAAAAAAAAAAAAAAAAAAAYB3udyeDxmny8qvVsE/Iya/hyMdv8AZl6Sg3+KqalCXy2k1n4PmUVJWkroysLiq2FqxrUJyhOLvGUXZp/Pc09GrppplXXfF3FZ/BLNZMVPHnOUaMurmdFq3qEbNpeRfJNN1SbTfMoTtUXI14W+8U4VVfXOm6uFtVkXCyucVOFkX6xlF7TTIbd+Hgjsr58ngu7YOTlPAnOKnWtbaxLJcqkk10ptkmlJ8tnwxrcBiMA4+dT1XRx+ftOj+TPlDoYu2HzLZpVdyq7qUn9r+il1t829XeGkSJYP0ysWdc5V2QlXZB8s65xcLK5aT5ZRklKL009NLo0/dH5kQbmTTV1x9jAAB+gAAAAAAAAAAAAAAAAAAAAAAAAAAAAAAAAAAAAAAAAAAAAAAAAAAAAAA749EpyjXCMp2Tko11wi52WyfpGEIpynJ+0Ypszvun7juIcZsUcSrloUtW5dvw41K5tS0/xXWLUtV1J/EtSlUnzKe3cr4dcDgsOapO/LkmrMy5RdrUtbhWklGqpaSUIdXrcpTbcnnYfCTq67l0/Dp9hQuUXLHBZMnTvztfhSjJaPpqS1VNdTTm9LRs7rSfcJ4K+Vxy+NRjKSalVgRnz1paTUsuSSU5qW/uIOdWknKVnM4Ql7TSopRilGMUlGKSSiktJJLokl0SXodwWOlRjSVorv4nLmc57jM4rc9ipXtfZgrqEU+EI3dutu8pabTdkAAe5XwAAAAAAAAAAAAAAAAAAAAAAAAAAAAAAAAAAAAAAAAAAAAAAAAAAAAAAAAAAAAAAAAAAAAAAAAAAAAAAAAAAAAAAAAAAAAAAAAAAAAADWfe74e+HcZi3fUqsrk5YZtMYxya0tuKlLTVsIttqu1SitvXK22Qa73/DPxPg755weZi9f53jVTcYa98ipOyeOtfrylOpa07NuKdmJ1nBNNNbT6NPqmn7NGFXwkKuu59K9/T7esv3J/lpj8ntTT52j/RTe5f1ctZU+xXhxcG9SniMt9V1X+85LBu9vwacO4g7L8T/wflzbk5VJyxbZ6fWzG5lCPM3zSlQ6pSfVuTb3DTvP7juJ8H+LOoSp2l9rok7sPbekna4VyrbekvOrq25RiuZvRAVsLUpatXXSt3f0HR2R8rsuzi0aU9iq7fQ1LRnfohrs1eNthuVtZRjexggOEzkwy6AAAAAAAAAAAAAAAAAAAAAAAAAAAAAAAAAAAAAAAAAAAAAAH68Pw52210VQnbda+WumuLsttfq1CEU5S0tttLUYpt6SbUme6fwN5mRKNvFZrDo1GSx6pKzMs93G2XK6aEvw/BK6ctv+i5U5e1KjOq7RV/Z3shM0zrBZVT5zGVIw0vGO+cuHmQXnS10ulsr6zSI38D4DkZVsaMWi7JulrlqorlZPq9Jy5VqEN+tljhXH1lKK2yXvc54GowlHI4zZG16Tjg1b8pP/ANIu2nb7fd1qEF13K1NKMlO7/uxweF0qjBx4UQ9ZSW522v3lbbNyssk9LrOT0kktJJLKSdoYCMNZ6vo4fPv8Dn3lB5RsVjL0cvToU3dObtzzXarql+43Nf0ltDycK4TVRXCmiuummuKhXVVCNddUIrSjCEUoxil0SSSR6wCUSsaelJyblJ3b1beru+L6QAD9PkAAAAAAAAAAAAAAAAAAAAAAAAAAAAAAAAAAAAAAAAAAAAAAAAAAAAAAAAAAAAAAAAAAAAAAAAAAAAAAAAAAAAAAAAAAAAAAAAAAAAAAAAAAAAHS2pSTjJKUWmmmtqSfRpp9GmujTO4AI/d5/gu4XnOVuNzcOyHtt46i8a2T29248lpNybblTKqT31ctJKKHeL4XeM8NlNyxXl48VtZWH97Fr+1Qm8muXzXlzh1WrJPerMAYFXBU6mtrPpXw3Gx8n5eZpl1oSkq9NabFW7aX2aiamtNEpOcEvqbinWM0/R79V+9dGvzT6M7FoHeD4d+D8Tcp5OFUrp63k0r7PkvWtc1tXLKetJanzLXT0bRGvtx4BMqvmnw7NryI9XCnLh5Ny+jvq5q5/n5FX7/UiKmAqR9Hzl1b/B+65unK/KJlWMtGu5YeemlRXhfqqQTXfUjTRFMGT9r+6/iWBKUczByqFHf3jqlPGaXvHJrU6H0668zmS9VF7Ri0Jpraaafo11TI9xa0at2myqNanXgqlKUZxe6UZKUe5xbT7mdgAfJ7AAAAAAAAAAAAAAAAAAAAAAAAAAAAA/TDxZ2S5KoTts9fLqhK2x76LUK1Kb2+nRA/G7K74H5g3P2A8IvGs9RnKhYNL/Xzeaq3XzWMl5y901aqX8k00yRnd34F+G43LPPts4jauvK08bEXTWlRCcpTXXr5t1i2k1GOjNp4OrU4WXS9Pn6ij5py0ynLrxnWVSa/V0fpJX6HJNU42e9SqKS6GQi7K9kMvOsdWFjXZVi/FGmPMoe655tquva6rzJw2tv2epLd2XgOyLVG3i2Q8VPT+y4rrsyI9d8tl8lZTFtdJKqNqT9LHvamXwHs7j4tUacairHpgtRqprhVXFfSMEkv4H0SWpZfCOs/Ofgvj+NxpvN/KXjsTengoxoQ/adp1bdrWxC++yg5LhU6cT7v+6vh/C6/LwcauhNJTmlzXXaSW7bZbssfRdZSfovkZYASiSSstDUdevUrzdWtKU5y1cpScpN9bbbYAB+ngAAAAAAAAAAAAAAAAAAAAAAAAAAAAAAAAAAAAAAAAAAAAAAAAAAAAAAAAAAAAAAAAAAAAAAAAAAAAAAAAAAAAAAAAAAAAAAAAAAAAAAAAAAAAAAAAAAAAAAAAAAAdLKk000mn6praf5pmrO23he4Hnyc7cGFdre3diyniWSfzn5MoQteun3sJ6X7jawPiUIzVpJPtRnYTH4nBz5zDValKXTTnKD7HstXXU9CHfbP+T+/FLh3EGn1apzK+aD+UVfSlOC+cpU3P6Gne0fhE4/jLf2SvJSfrh3xtWv2tWrHnr6cm/oyyYGDPAUpbrrsfxubCwPlGzjDJRqSp1kv6Snrb71J02+2W0+sqB49wm7ElyZdN2LJvSjk1WYzl9Yq2MOZf2o7T+Z44TT9Gn+XUuGvx4zTjKKlF9HGSUotfJp9GYL2i7hODZb5r+G4k5ftqmNc47/ZnBRlF/VNGFLLX9WXivhf2F5wvlUouyxOGnHpdOrGfhGcKdv42VagsA494FeB278p5uI29/cZPmr+GZDKSX0jy/TXQw7P/k+KNPyeJ5G/bzqaZ/xdaq/3IxpYCstyT7GvfYtdDyi5LVV5TqU+qdGV/wDD5yP8xDAEpc/+T+z4/wBHxHFs+SnRbU1+clZbv/VRjOd4G+PR/D+jrF/ZyrYy9PlPFjH16L4/z5fbxeErL6r9vsJylyvyWr6OKpfvOUP+JGBoAG5cvwe9oo+mDCzpv7vLxOv9lebdV1/NJdV19deD/go9pP8A9Is/9c4X/wB/PJ0ai+pLuhJ+xMkY8oMqkrrF4XvxVBe2omapBtb/AIKPaT/9Is/9c4X/AN/P0x/CX2kk9PhcofWWZw7X5fBmTe/3aPxUqj+pP+CfvR9PPsrX/wB5hP8AxeH/APkNSg3ji+CztDLX3GLXtJ/e5cVrfs/Khd1Xvra9dN9N5Dw7wF8Xl/S5PD6v7k77/n86KfbXy9X8tv1WFqv6r8DCq8qsnp6yxVH92op+qG0/URtBLrhP8nxZ08/ikGvfycVxf7vMumjKeF/yfvDYtO7P4jbp/hg8WmEvo/5tZPX92yL+p6rA1nw9a+JC1uX+R091dz+7Rrf80IrxaIOH42ZkE0nKKb6JOSTb+SW9ssq4D4Quz+P/AJBG9+7yrbspN/PltnKC/wBGMV9DZfAuxuJipLGxqKNLS8qqFb18txin/tMmOWze+SXYm/gVjFeVPBQ/6vQrVPvyp0v8vPP1FYvZbuT4vm6ePw3LlF6+8sqeNVp+klPI8pTh/ar5zbXZfwIcXtknlX4WHX/ZlZl3+3TyowpqW1v4vtD0/wBVk+QZcMupr0m36l6tfWUrG+U7Mqt1h4UqK4PZdSfjN7D/ALu3URx7K+BTg9KTypZWbJPfx3Sx639OXGdUnFP0Upvfo+Y3j2V7C4WDBV4eLRjQX6tNUK9/NtxScm/Vtttvbbez7oM+FGEPRSXdr47zXePzzMMw0xVepUW/Zc3sX6oK0F3RQAB7EGAAAAAAAAAAAAAAAAAAAAAAAAAAAAAAAAAAAAAAAAAAAAAAAAAAAAAAAAAAAAAAAAAAAAAAAAAAAAAAAAAAAAAAAAAAAAAAAAAAAAAAAAAAAAAAAAAAAAAAAAAAAAAAAAAAAAAAAAAAAAAAAAAAAAAAAAAAAAAAAAAAAAAAAAAAAAAAAAAAAAAAAAAAAAAAAAAAAAAAAAAAAAAAAAAAAAAAAAAAAAAAAAAAAAAAAAAAAAAAAAAAAAAAAAAAAAAAAAAAAAAAAAAAAAAAAAAAAAAAAAAAAAAAAAAAAAAAAAAAAAAAAAAAAAAAAAAAAAAAAAAAAAAAAAAAAAAAAAAAAAAAAAAAAAAAAAAAAAAAAAAAAAAAAAAAAAAAAAAAAAAAAAAAAAAAAAAAAAAAAAAAAAAAAAAAAAAAAAAAAAAAAAAAAAAAAAAAAAAAAAAAAAAAAAAAAAAAAAAAAAAAAAAAAAAAAAAAAAAAAAAAAAAAAAAAAAAAAAAAAAAAAAAAAAAAAAAAAAAAAAAAAAAAAAAAAAAAAAAAAAAAAAAAAAAAAAAAAAAAAAAAAAAAAAAAAAAAAAAAAAAAAAAAAAAAAAAAAAAAAAAAAAAAAAAAAAAAAAAAAAAAAAAAAAAAAAAAAAAAAAAAAAAAAAAAAAAAAAAAAAAAAAAAAAAAAAAAAAAAAAAAAAAAAAAAAAAAAAAAAAAAAAAAAAAAAAAAAAAAAAAAAAAAAAAAAAAAAAAAAAAAAAAAAAAAAAAAAAAAAAAAAAAAAAAAAAAAAAAAAAAAAAAAAAAAAAAAAAAAAAAAAAAAAAAAAAAAAAAAAAAAAAAAAAAAAAAAAAAAAAAAAAAAAAAAAAAAAAAAAAAAAAAAAAAAAAAAAAAAAAAAAAAAAAAAAAAAAAAAAAAAAAAAAAAAAAAAAAAAAAAAAAAAAAAAAAAAAAAAAAAAAAAAAAAAAAAAAAAAAAAAAAAAAAAAAAAAAAAAAAAAAAAAAAAAAAAAAAAAAAAAAAAAAAAAAAAAAAAAAAAAAAAAAAAAAAAAAAAAAAAAAAAAAAAAAAAAAAAAAAAAAAAAAAAAAAAAAAAAAAAAAAAAAAAAAAAAAAAAAAAAAAAAAAAAAAAAAAAAAAAAAAAAAAAAAAAAAAAAAAAAAAAAAAAAAAAAAAAAAAAAAAAAAAAAAAAAAAAAAAAAAAAAAAAAAAAAAAAAAAAAAAAAAAAAAAAAAAAAAAAAAAAAAAAAAAAAAAAAAAAAAAAAAAAAAAAAAAAAAAAAAAAAAAAAAAAAAAAAAAAAAAAAAAAAAAAAAAAAAAAAAAAAAAAAAAAAAAAAAAAAAAAAAAAAAAAAAAAAAAAAAAAAAAAAAAAAAAAAAAAAAAAAAAAAAAAAAAAAAAAAAAAAAAAAAAAAAAAAAAAAAAAAAAAAAAAAAAAAAAAAAAAAAAAAAAAAAAAAAAAAAAAAAAAAAAAAAAAAAAAAAAAAAAAAAAAAAAAAAAAAAAAAAAAAAAAAAAAAAAAAAAAAAAAAAAAAAAAAAAAAAAAAAAAAAAAAAAAAAAAAAAAAAAAAAAAAAAAAAAAAAAAAAAAAAAAAAAAAAAAAAAAAAAAAAAAAAAAAAAAAAAAAAAAAAAAAAAAAAAAAAAAAAAAAAAAAAAAAAAAAAAAAAAAAAAAAAAAAAAAAAAAAAAAAAAAAAAAAAAAAAAAAAAAAAAAAAAAAAAAAAAAAAAAAAAAAAAAAAAAAAAAAAAAAAAAAAAAAAAAAAAAAAAAAAAAAAAAAAAAAAAAAAAAAAAAAAAf/2Q==;" vertex="1" parent="1">
          <mxGeometry x="202" y="143" width="81" height="81" as="geometry" />
        </mxCell>
        <mxCell id="db1EEsWRSnI7m_Rw6AXZ-5" value="" style="verticalLabelPosition=bottom;aspect=fixed;html=1;shape=mxgraph.salesforce.bots;" vertex="1" parent="1">
          <mxGeometry x="152" y="94" width="71.58" height="68" as="geometry" />
        </mxCell>
        <mxCell id="db1EEsWRSnI7m_Rw6AXZ-7" value="User phone no., Message" style="text;html=1;align=center;verticalAlign=middle;whiteSpace=wrap;rounded=0;" vertex="1" parent="1">
          <mxGeometry x="37" y="97" width="79" height="30" as="geometry" />
        </mxCell>
        <mxCell id="db1EEsWRSnI7m_Rw6AXZ-11" style="edgeStyle=orthogonalEdgeStyle;rounded=0;orthogonalLoop=1;jettySize=auto;html=1;exitX=0.5;exitY=1;exitDx=0;exitDy=0;" edge="1" parent="1" source="db1EEsWRSnI7m_Rw6AXZ-8">
          <mxGeometry relative="1" as="geometry">
            <mxPoint x="180" y="276.66668701171875" as="targetPoint" />
          </mxGeometry>
        </mxCell>
        <mxCell id="db1EEsWRSnI7m_Rw6AXZ-8" value="Twilio Bot" style="text;html=1;align=center;verticalAlign=middle;whiteSpace=wrap;rounded=0;" vertex="1" parent="1">
          <mxGeometry x="150" y="168.5" width="60" height="30" as="geometry" />
        </mxCell>
        <mxCell id="db1EEsWRSnI7m_Rw6AXZ-9" value="" style="image;aspect=fixed;perimeter=ellipsePerimeter;html=1;align=center;shadow=0;dashed=0;spacingTop=3;image=img/lib/active_directory/database_server.svg;" vertex="1" parent="1">
          <mxGeometry x="160" y="287" width="86.1" height="105" as="geometry" />
        </mxCell>
        <mxCell id="db1EEsWRSnI7m_Rw6AXZ-10" value="" style="shape=image;verticalLabelPosition=bottom;labelBackgroundColor=default;verticalAlign=top;aspect=fixed;imageAspect=0;image=data:image/png,iVBORw0KGgoAAAANSUhEUgAAAUsAAACYCAMAAABatDuZAAAAk1BMVEX///8fHjccGzUAACQAACba2t4nJj/v7/AQDi4HBCwWFTF7eobCwshaWmoAACgZGDOwr7eMi5RERFampqyZmaL19fdVVWUqKkEREC4vLkRKSlwAACLk5OcKCCvZ2d3p6ezLy9C1tbygoKk3NkzQ0NRjY3KAf4sAAApycn9PTl/GxsuJiZR0dIEAABs8PE9kY3MAABferd9/AAAKaUlEQVR4nO2d6ZqiuhZAIYQpKjgXlqDlgG1ZtnXe/+mucyHZOwSMt78+Z6+/QgiLJOxMaFkEQRAEQRAEQRAEQRAEQRAEQRCajL47ZT7XfzpTfym+nYgSv9t/OlN/Kb7H7BIOuWwGuTQHuTQHuTQHuTQHuTQHuTQHuTQHuTQHuTQHuTQHuTQHuTQHuTQHuTQHuTQHuTQHuTQHuTQHuTQHuTQHuTQHuTQHuTQHuTQHuTQHuTQHuTQHuaxiNE9d1039UeWRf43L+a477O1bveXCrb4rQ7jdr87BE1kURUH8dvjuLVLV4S9wOQK4/TafuUU0rYza+4nDeZYlQRZxR+SL24mpW2Y2v93ZTPrNtdDTjif6D9f0F1vP4ZmI2UUQY7HI+HTSaqOZ1nU5B3L2mL87395bCda7pTKJwiLe51I+v4y78ZykmEuWcLt3ufM+D0tM99fTBv+Uf4q8608L6awjvxaFa673Nk8kM6drB463mT3lch1HwOVP+XPm5WM7CSsRXl2O3oNSzkQYdj6UJtNtlMk3xUJ7efr1XZR/CVrXE7u8/FO8uvyyAxK0o+3PNXdjJ4BEXq+dRXCe9VzOghhJNxxIB3ek+8uuLjsZkETi5L6Uxp1eGADnnK7sjI+nvUv5UrhkF5euAG4m69wvuR470h2UEE4O1CctlzPo6ufcRQs5SdTlNoJTCWKshXYPHC8fCVs3cTm3gZtJ+rdWcLSZVpk8n8C/GrlsJ4jKOIS2CWAuew6WMcaHoMpForytOGmPa7v0D4mckpjcWqr1KlRdsgDvl4umhst2iKgUHvjiQFx2UZVHppDMgYMXyjPMnkhHVLkcA21GLG430g11CuUFEZQqZbXLdoTcUbKCoy3YJZrMhelSVjmtUGmfbJapcAm1Myz8uJ4z1Lhk4Tz+mOlKl+0QST7rS29whcs19O4s5svZlZLp/q5xWz+oXW6AysH4rXz1pjUv9lidqlwOsMY/HGMxK+TSx95ed+LVY3pr7BlWoHJ5GELtjHMLRfAGHWXa1XeJquQ5YhJyKVpyHCgRPT7jVZV8BIVLG3qD286tI7Gor/IYyBSqk9plF2v9ectCkV3asYYYZhcT2UKhqA5KlwD3GN1VN+gIsffT0ildoqVyKgdXSpdaFOtDu27Ldaemy58YXaPqQCRjLZdD5IaYA4eDT7oMCmW9aQ2v6zJ5v7XSYFOqg3OPjBQusdRZVGxwzbmM+/ck8FiUxUmSCEVtrOXyJ0ZPGZomE4HqkvHb7XHgLrFSGYcVY3JNXdrRvV+OFcs4Cj63rVa+4miIVcdlLO4Rcgtpn1nAJ51Wa9/xODIwYN+jTNTlF1I04uBDrbK5S34by0LeqIwfulfdsy+B3HwNlz8xujVHIrAg2KwvxW70sY3gG4snI7XLFqJSeMjgndIlK+9RPyKnzW8FfgxmOrGLfTa/Bb8YlS4fRgLjwsDMEHwyzNkW+yNuB348txYTcdlCHirWb1S7ZKuxjCclfmuHU3DwMHsv9bMWYFlSupwUsQvDhW/guK80oAhH8yJXuYS6Wuf76SuGGnGXt/HLB/pSmxhdsz6AxuaCT6mftYNkqvo9XgpOnBw7WeC7wZHfsT2ojDExx1zy9h4plZl8P69wCVXxchfzogt45EqXWEkAq3gEBdHf0Bvo2lgALtkKGOE7wXOtua5nXY6g8CQCP6iyle+skUvw6R2gI+fA0JQdbDCX0NEnHEW/0aTLGVDhEvjaQMvaxKUPNZccDv2WUDe/j7qEcVT9RpMuoZfGFJmu3EpVqIlLF2ig4WJ5+nAOUPi8UR2X2DTCC1wCjVehS/RIWxLWxOUHUBNC7H7lx3c8OK3hkjnyfOOrXLbkRhBM4Jx9aXamicsFUBPAqSzsYMet4VLUWMvxrMtcfhHgIwBSb7OJy6VcxxlDZg2sNRA8OGfxei4ZPEsG86xLoN/EganjC5+vcvmGxSwp5PJc1DTLZWxXdh3v/Dtcei9zaQt9mS9wGaGttTSp28TlQG4CWYx1lsE6vqvj0o4DXZkvcHkNhmV8qUQ1cdkG9PyMIZWA3j3TWS2XxcG+17oE3j1YsAfcWBOXUHc8w2KiPRATRXViohNioifzWZcboMuLxeq5kVg9hdZyYLE61FGMfewnbK5FvGnJfEGs/jAXVGAm17cmLkerJ/uQK0yz+MbmUwXTkfmsS6hBQkLnjlzfGo1tQFMByNgGVI+TLebS2S2xqSvhach81qULXV28AzEK8P41OeYG5ToHx9y6qMs2Om92rObVQfvTY25gE55tpRTApU6NXMJjwUBUOwRHdgNX4RIdWMfWCZp0iUy+ReXR0wU44dPIpQU+PiaFtcgcxbulcqmQGWMdVWMukRnEbFV8G8z38PqcZi57z8yd3SZ10TldbPasMD//KpdzZGI/jsaLy7VH6w2rP6ercJkiq4ED+2t2ndNd7wN4voHZfoVLC5v0sZOVWubTLsEhwjOCB/18m48n+D6HZi6BQPV6TsYP+WazyVfoJbPbILliDQy46+FEhcznXX7ga3tYLBqvgVG5XOPL1GMRBIpLsvC+O0uxNguVKTyVzOddQnGjLg1dootgKvmZcFC5HI1xmYo404BLaCxGk6YuwQlGDcTqnoRy/eXoE1uPJBTrNwy4bL6UtbFLa9FoyScrdMjU64L9AyYzWaH5MuHS11lJDNLYpbVHtnIpcQpbKSrWq4M7i84k0EIKYy6tXaMVz/YzLq33+q30w5qBqn0Uc2wRB14yjbi0lg1XWT/hEi84GNHDDojK/T3pCltOmRzgt7kZl1o7RIDVMk+4tOY1ZfLvx2dRue/MRZuu4ADmzZBLq1e5CUy8yQOPz7i0/L7ubshTctPSoKrGfkiXoTLBam7KpTVAFuLek13N6+0trXR5DCCq9mDeEbw88qGzT3eN7R6He0DGXFrrg+INxJx8VHPPs4ZLqxtjoctjWrwvzSVq7R9fg59LOOccGKI159IafWFb8e0kOEUj5l1a8y2vXHB/+6xCA5fWDt0SDyzXNejy+OrbRxm0d97Jz52FF7i0rI+OgxaeE3EU9KCUNL+3ge9YzqSSOZ5mJX5Dyw1XTvmwf4BnfSwnw8k0Kw4tMMGj/NrbULgc/OIlnEDP5bEibgMHG/jLpoclnI4fOOVL/oIm4BbT8mH3w8uTB92hBJTiQD4MW1o2G+ZeEHLnCI8CL1/eO7AKl25XRv/LRn43j3ko4uIzjEXAs8MX+pePI+CKYFd7Bxx4obzx+zWk6/biSPsjLQpRuHwafzfMD3bEeXSCO2I13qg/9vR380qXZ/x0vTs/w3U6/799r+vP8HKX/yHIpTnIpTnIpTnIpTnIZVPS0ncr01TuiJJLLQZheQ96rBgLJhS0nfJ3NaFNqORSg7Xi843kshaupzfLSy4rmaNTeOSyJqO+7gwhuawCXSZGLuuCrgUll3X50ldJLtVA25PIZSPqLeYjlwo+tFdSkMsKZugKHHJZk3RS86uF5BJjVHtJJLnEQHe5ksvaLKfAlzOVqL6w/d9m8dmpyVj7+14EQRAEQRAEQRAEQRAEQRAEQfw7+B/FXOKIpKXsHwAAAABJRU5ErkJggg==;" vertex="1" parent="1">
          <mxGeometry x="108" y="387" width="91.46" height="42" as="geometry" />
        </mxCell>
        <mxCell id="db1EEsWRSnI7m_Rw6AXZ-12" value="webhook" style="text;html=1;align=center;verticalAlign=middle;whiteSpace=wrap;rounded=0;" vertex="1" parent="1">
          <mxGeometry x="96" y="224" width="76.9" height="30" as="geometry" />
        </mxCell>
        <mxCell id="db1EEsWRSnI7m_Rw6AXZ-27" style="edgeStyle=orthogonalEdgeStyle;rounded=0;orthogonalLoop=1;jettySize=auto;html=1;exitX=0.5;exitY=0;exitDx=0;exitDy=0;" edge="1" parent="1" source="db1EEsWRSnI7m_Rw6AXZ-13">
          <mxGeometry relative="1" as="geometry">
            <mxPoint x="431" y="216.66668701171875" as="targetPoint" />
          </mxGeometry>
        </mxCell>
        <mxCell id="db1EEsWRSnI7m_Rw6AXZ-13" value="" style="image;aspect=fixed;perimeter=ellipsePerimeter;html=1;align=center;shadow=0;dashed=0;spacingTop=3;image=img/lib/active_directory/database_server.svg;" vertex="1" parent="1">
          <mxGeometry x="394" y="296" width="74.62" height="91" as="geometry" />
        </mxCell>
        <mxCell id="db1EEsWRSnI7m_Rw6AXZ-15" value="" style="endArrow=classic;html=1;rounded=0;dashed=1" edge="1" parent="1">
          <mxGeometry width="50" height="50" relative="1" as="geometry">
            <mxPoint x="220" y="332" as="sourcePoint" />
            <mxPoint x="393" y="332" as="targetPoint" />
          </mxGeometry>
        </mxCell>
        <mxCell id="db1EEsWRSnI7m_Rw6AXZ-16" value="http tunnel" style="text;html=1;align=center;verticalAlign=middle;whiteSpace=wrap;rounded=0;" vertex="1" parent="1">
          <mxGeometry x="277" y="298" width="60" height="30" as="geometry" />
        </mxCell>
        <mxCell id="db1EEsWRSnI7m_Rw6AXZ-18" value="ngrok Agent" style="text;html=1;align=center;verticalAlign=middle;whiteSpace=wrap;rounded=0;" vertex="1" parent="1">
          <mxGeometry x="124.17999999999999" y="436" width="127.21" height="30" as="geometry" />
        </mxCell>
        <mxCell id="db1EEsWRSnI7m_Rw6AXZ-19" value="localhost:8080" style="text;html=1;align=center;verticalAlign=middle;whiteSpace=wrap;rounded=0;" vertex="1" parent="1">
          <mxGeometry x="394" y="402" width="60" height="30" as="geometry" />
        </mxCell>
        <mxCell id="db1EEsWRSnI7m_Rw6AXZ-20" value="" style="shape=image;verticalLabelPosition=bottom;labelBackgroundColor=default;verticalAlign=top;aspect=fixed;imageAspect=0;image=data:image/png,iVBORw0KGgoAAAANSUhEUgAAAOEAAADhCAMAAAAJbSJIAAAAhFBMVEX///8AAAABAQH8/Pzr6+v4+Pjj4+Py8vLU1NT29vbu7u7n5+fExMSQkJCamprw8PBZWVmzs7N7e3tpaWm/v79GRka7u7txcXHW1tY8PDypqakoKCjd3d2NjY2Hh4eqqqo0NDRQUFAaGhojIyMQEBBgYGA3NzeYmJhSUlJ3d3cXFxcmJiZWrq4IAAATG0lEQVR4nO1dCZuiOBOm5BAVkPsSEVQ8uv////tSFcKl9szsTrewH+/zjNra7qa6kqq3jiSSNGPGjBkzZsyYMWPGjBkzZsyYMWPG2LCKtXcP4VthHaEKIFq/exzfhgtE7FE5QvbukXwTrhDQcwzFW8fxfSjB4C92sHnvSL4LHmjX3EoPFoD+7rF8D0I4QI3/qA6lk+3BggE+3j2S74IGCy7h9d0j+TYYwCU03j2Q74McoIgQvnsc34gVahFu7x7Gd6IkJdqGpmiZ7jjhf86qyuQsFtDiv2Z1IiaTRSJWNpkdAPXdY/qrYP4QTmf2sJOQn5KEq3cP6i9ic+EysX8nz9txHSbvHtVfxIF7QwJfjvjCfPew/h6ijoC1KunpP+MchwIeay0CeP+NSGPdF5Axt+3hJmSEyDI28ruH+G9hDyVk78lhQHaHI4kmPmEHszTn7+rN2yTlpCds1BNFePqD0ZUcYPvmUf4bmCDEu6WxtAGb3j3CuatbSN88yn8Dl1sVO1RXmyX7GVx8NxcstZbQffMo/w12aFOKWC/5JD0xN8HMp4WvA+8uNMl+sCbK4wxolmD9gj24HhR7A/1Eb5Va7x7sP4FWk7Rm0ZGsgVWXMbK+vdlNLisupz1fQdKVe0METivJGFK6/VvH+2dQQ9OGge4SkyejMof/jsXWY58QwG4y6apDx1Iu+MzUt9vYMDSmwXu95PYBT2/0tHzOwymU4tJ+yJQbmp8Htc+/6Ux8WnEmFF5L3zjOZ/ZwGT2RWzdBEgb2+iYNWpWy5wqgwF8TMp9ukRXGmdKw8BWzt+Nmco5wDR/47wJDg8LkLmUpxKWZO/FKWkJA0m2EETLZR8friLmcQ4yl8uOauyyGILtTWkJPV2ZjmeYScHr/AahGa3e2aFr0zH0mnDA8cScyzJlAmeQ5TSHcFWz2MlYZZd/Kd6+UB144YGjMMEFmtJxGbggrU67yw2P/LWxNeCXe2UWtGOY9SIKqsSZyrEhyq1S39aN2O3VHBOuJeJyuXWP2seqCnaYnFk69SAtbHcubSqtobIR1exkmZwiX3OBK0lLr68YTZp6SouHq5UaKxqVF7VG+hWcZS/H58hfc09jBnelWztKkdpd6PKoawKbHRTG4jfkHSxbH5/bXE27joPktmx9NUuUuEumdUeAI3akJbeU3NPBDuLz8pmYl/W/Qmyny9yr+1jH/EXLhyI73Q6buqNxUR32hz2yI9XRJLWMnaqnpqIN9pU6EuiQVL/1CQOyLzb/jo2tTdCe3j0K24nA4wemHx/xn2JNIbm0YyHHXTV9SiXIIi6EfzLvr2rtuVBHc2EpVtiOX8IjTkq2jOErKFOkl/mzXqmNM28NnvTMj+Yx2U72xlu6oDOcQKxTIof6SE/EV40Ry1CHtyj1Kkn/pBFJYU7T62ZkQlg//3fEgZhKisYS2wyuzyqLjIkjkHhMYOoIMRklEa6CEzKH77Olpt4UedPkcHJfhHYalRGXUVQwFqLprQpPFlmPd35d8mhpJJ85HUCFY8fOe0pbj7p1iw454Z4IoRXBZZEnff5DZIQEXlXn3bs8r3dtxl4fRSvKiIROVbCJZk09b2E1RqHmuJyNH2jfqMo0OaEuruuyS69kdGoaKz2ch4XN7CWe0NOPuYsASNtIXUyqFwxvEGfjm7Xn4ZMBOcoyRF6LQmuYpc+LV0xifSMzLHoU7WMb+QK39IwbGO8fnCTYM2DVde92bsAPdNFyofnC4/wCpMJgPQT4ZIcQrGZfM5hary9j7pdRnKRpDjQ3fFPZFe0E81wDKjn3//IPD/SfwHgpq7PFyWKGnO9S/81yJTMJjql+EqkcLv1f0LHJst4Q892LmBxb175A3XA7llHl4NXoJ5S7zxA0IyEVdWZIdwdN4zkZ6tJlXojPRuIN8hgo6DXqRuudGpg52a09vM4cR2g9fJdGuo995EuLCO3Uo9pVcCGOq0DTOpBC9jAKd0W9yw7IMOE0Q6F2xIVEQmrq/G7P+A2raGFh/1OEToQCvkzQ1U2g6TRpnrhRQDXyGLmIoH/yfHO0/gQllr8gtGFtZ5evOLw3zimLa+o1TGS30fqKCvwg6Ya7nMfe4dgcrUay+cPytQ62/gOOtqKdo6/ygyjbO6fZgTrR6YaYT6KoJGgk/FUmhaLFsP2Xuw1tJTMahU9iLz0ceXEi841KYl0hHs2PVE08OHKpe4FLbDGP5FdfzvfvnGCkM1NqN0hbnI5G25qMYCk2NOla1C25dk7EHFxInmEemC2Jt2IXQsJcUy4vMJ2Z3OD9yM256YAqbTZHDbDLUZK6s0J7yzphYWiU6ExEFVg8vCrsq+/aY8/ocqLcFevqAIotFPSfD89qAQjftr2nZfQJt3z6Iji+DN1iC7WD7zxWuAI+EewBz/LSt7msjMc9NhYm5DBmVC7IqfZnWzsdP2+rubkFHgxO1Pm8sFuBinV6qpLyX19Yw6c/1FsqKZI+f1FDLD0ZL9T78RV3HSNkMjSi8kK+S2rIcDeXlU9OUI+k08owpwaF4MGzKhLUT96Cl3lo7U9c+OkqK/6NVpfzGUn0/2Cj9W8nsfs3edqQwOewEhdtK7db1Q97REGeWHp7GnqlBnBiPAdUXSqRuEZnXCjV5Q94AZLtTDD1wKifpMXZ9TWBHG7MokrOXzkJE5KBIAUJGrKWUnH2Ub+DcRFCHOsWBwkcwgU5vH7MUdtOLT0tLwdSFAp/Uq6+HPqgB7X2uvyBahcwNTMFdLLGV29gs26LvTsW8or6tj1bwQAY3bI0KI3PcmmqYl5uAu0BpHObjbtxhnO0j3DH4z1T2zBArO6kCo02hYrHYwzl7AE0be3GGgKyUUZeUSxiYgJ1DKVtgZxTJx+y2gZv0m+2V+AU0SJ7DTNLnO4f+m8BZFy71rJml99o+Fnvqt0EPSbFjo0SXpzoiecm8zNjT3ogd9iEabmNqzi5zDV5lXW7YA0xb8kPiBeILKl+TobFi0cWo+zFqWDTrIqHD8wktpNVt9jKYudkbbdW+zpjKOImncDII+oa7VBtTOG0xz61J+x3cqM29CLBFj7mNZ65vM4FUjSRRq4IsyolcdQGqNjjARwmLG8DzfoVYWo2/wkZwiKUYbc/wgrrdaFebr9sg2jIfsPSZkxlRV/BLIA099TfkkydHQ4ou4mXxSdWl6yR8PgWJRq/qzdWWAfzq5A99GgsRXWLRTFM+VZmfW+d7AKv4uv1+IocQJRRM9KbpXVI/sOFGlzh7ewVv3P17Asyj68DWVFeJNS5Mhq+WWjgJaiqx8NCwyq4S2bo0KhJRS7/cdqBOZJpemcE45k5PQsYFcrQ0+tfWphzjlrVHrJgH1OGetDVv7gNlI8ScKk5Tiwe7D73d6TSsKaOlrlR1u/g67bFHiuRVTmw2w6hem8iRLmyccv9oiJbI5F/s1zLQX4y6V7iBzcYZdFQIsDvUgeJSkE8H04j97FpiMVv7itWNCzETI2yX4ZlOcbnz2tPqZquyobB4t8ikqLcS9wvc3z2BjJuE+ZqD1GnNSM7UXWvzwaPbsOgxy3reIQNJTka16/A1mFOot+yJCIM/kc6wL+WEzgR2UnDquseKq38SCMB62lUL7rremUE/xjocOyLKkl5M5UwepifZgr4O65eeYTXxcS7tevtLDYonJ5Ddl1CJkXSpJfnIB+dE8hcLZn/QtOy73+LZqimAKTFei/XnKK3ZOTdZqYDxUBOzVK1BTfmJrpPw+ozUFJgC5iJ69yatcZXWfPsvJk0TErXbsycX7APvXYP+I2hoMq69XWv4QuGUVLeSZntGT8JMXcBUDhx0MQXlNbrLcZvlPdFrIrN0m/bTomNZjJxZG3v0WxM4WIiR8H4+rj1Ps5tSvXar+zY+i/7hEFvGTQv2pWm4fQvnKeOhcP7g6e4AxAoTB5o9TWocsKV6Cgl+qsFoVKYIbT4lsbWPf5TdxM69x/2/GiXmJhHsG3RcBO68ONTdC3Dj1PQI54Xwik93IWwv0wiFbXTntE/hs+nP4DrLO7z86YTcTIO8bakStQPoyFN7Ar1tKQYvHvA0VHQ+DZeRUtuo2+GlqXHkygm6XBX6nfo5ErmJUJsCi231kbSC0xi08vwBV+1a1TWGwX7bsjFmaFQT7RwODSAShjqIrVLc0HZd4AZDqts07sYwqZ6o9BR24lNSB3HqLhdxuO6Ux8MlRglmZ1xNurcStnpk/jJQjQh9CdR3KDTAmWzBJBLEGRXV9OEGdntNHbdwiqVlvZWvt3uNyvvBNDi4RZsQhikNZHQKtqBi7katwIeBwvCounUveBwvSBO9aVqvvlTj4XCVSUb5IEzukME9TSCnsR6WTBcslHLoiK8z2LyZwZfk4XUCBroM83Xhf0zwMVd/6mb5vSKAXcQ3Cjn8RKLHk73PyL5d+LqoOhJga5fedRgXlMrNsHxTOeuQe437INvtUzgZTSO9WDBjo7dZRSZNapl03O5H7RDp8da3nHcKoXIY/+ZLWoqhJMVO03hK78qGR4JRZup6MJm1CXqBRkmilZNwiwbn0aK636Qz5GtCgb8FQapKK2Z3jt0aMXXfbH7ZpjIK1BeTNkps+dg6h6MuLW8A5lqS4/SSDLy82zmeacywSSinWYmdRbejFu+MOZBTdb/emfXpeUaN1un4E+EqX02dwBdObuo414jszAfeK1A2Vqe3KdikE4zGv4tW531tncLFI1rOE3TdYwIlI+fJ6FuIU+LWah4Eda67Ms88bvKwgurTyYqtjB3vKBdcs6NPMbr1sJttQ0nCJawoxW/RIeatiJ1QQ2VL9WzD+Bejx6Mht12LYrryx6Jsj5qAfkXfhh12AxRjPwHlxvmJN4ylOmKxV9cw58e+dE0qtlThhTVjdxtMxGrVPZy8Ee/TQqnYGl2Q7mQMi4/dcEPf0f0KEIy8WcPms8+Drhqxw53NX/0GEaYEsEHxRNrs79Hn56WM/taWiM8+t3dbS771KJ0T76A+7rW+9DrplS9kk7/7Me49YGxB0bkDit0/BJz921HR+4N3bDhuctoFw7Ai5BeABKM+kciiLW1S76JL0XBDOTd8Kq3sRfUpu37iL7w+kKmPjRXlP57OwgOH1fpFx12IPo3WYRSe6+6fGE9+ivv+NzjOEm2T9fObqDcfsCB+wrUIp7ysyU10eiB1T8NfPcaP8l/pkSed0/MbbBP70waHdX2U61k3RGY/zuF823XX56s/P20cB+/LPShi5/xbUpJkFS9Bw2EWzRkMQVvmwB/9VzYl5dapOLysFltiNrynOGC00QQJd6kasUpRMS6XTFUvHbwj/iie8TSnakV8Mrzt5Ju1uPOD+omg7zpqBRaXr8JCvQknwXv0kKmt1aHL+w5DvwtRjr3gUMh58wLMxCXMJmnPzaacQ1UJi+Q5vdXmgCD072R5tSnFdpR9Dr0mRvbDscw9pKngndpsm98vDK+sgC4043+jXR4KKVtH9N6gchPwaWZoVH8K/HK41aZxG9xo5lcmlJ0UZeQ0qlkqstH+4tFL9WVbYX5/8gMnU3rgpXBIlMFNwh1xqbpo5hgk1/hs7+ZZDw5+XzSTAWya4Iq27d6l9aOtgStGxb2txeK+ZT/gGIroIqV1jrV4Nu0z8popqLtd29yC/VAkCfEI2+Lhs4rh6V5XVFXdZLHuG98eVVPnM6NXhqREX8hYD5mxVtMFOvkFcWrT4ZnjnTsyJsnu3JMUp/DdtDx4QPHt1pZZnA9jY++YjPzWtqeC0geFC55H5nHDmOkGHca+Y0M1ix905PKjp9W17uyj+q4eaAQ2+gIufuBoHIzog3jtJnjvDhvILnia51jUzXGKREcwa5JST9riHgpmE8OThkB1XWGeWSxVjNFSbUNnGm9oYf9AGRYnaOKv0oAxLD+4SgkMFQni0jrGUUxg1DaQQmATPOUMFapDrMQWnUkJH4FdBUVRssjEN/RMD3HRfgi+S2o7evt7mRy5Dhc/UmjWcIFcl5nJ/m90xeA5aY0H8nNG06PafzI1lHjlmeSBg5lGOLbX8wxtTfP24A/W+f0v7qP6yzLS0Yp1uOrb4G50y27Gh3eVXgSPpb98hdzaAy8DywBX/8IQf42fzPwsr9hQZHHTppjgMUOuHbxWDQ9aYLZHKoM7ZN2tZH8gG1ndn63dUdVUXNTpB5/8UiHNWjwxPc1V5mD/uQbpe5+l6f988IhtUgB3LqTGVqR99bVu+19nkO3DbwooVh6D62RvvIKJhLQPxD2dquiZkWawf6i0nv0pR9Bspe+Ra1WWgbNopTt5+dRCtqP/tXjVIVup6tofz77/deiS+grPDGPm5OWN7qRX17OrKE+NzSF4IvIzUekTzx9pd5WqWzwBxwSNrn6/YXrFeLNh6LqmyrKs6Bbud+japEbwyhl5eVXWfCsSs7Sw3TTMNgMrsWL6vTI7bOa95RZVXn4YwZr7XWx039rfbw2BOSY327bLoDhDHx+XyHT0Md9W90ssFc1wDiZbk8LQLk5B5d1z6xDqyqRFmzFjxowZM2bMmDFjxowZM2bMmDFjxowZM2bM+H/B/wA1gfNcpb7fxgAAAABJRU5ErkJggg==;" vertex="1" parent="1">
          <mxGeometry x="354" y="352" width="40" height="40" as="geometry" />
        </mxCell>
        <mxCell id="db1EEsWRSnI7m_Rw6AXZ-21" value="POST" style="text;html=1;align=center;verticalAlign=middle;whiteSpace=wrap;rounded=0;" vertex="1" parent="1">
          <mxGeometry x="186.1" y="224" width="60" height="30" as="geometry" />
        </mxCell>
        <mxCell id="db1EEsWRSnI7m_Rw6AXZ-23" value="" style="rounded=0;whiteSpace=wrap;html=1;" vertex="1" parent="1">
          <mxGeometry x="367" y="108" width="122" height="107" as="geometry" />
        </mxCell>
        <mxCell id="db1EEsWRSnI7m_Rw6AXZ-22" value="" style="shape=image;verticalLabelPosition=bottom;labelBackgroundColor=default;verticalAlign=top;aspect=fixed;imageAspect=0;image=data:image/png,iVBORw0KGgoAAAANSUhEUgAAAOEAAADhCAMAAAAJbSJIAAAAgVBMVEX///8AAAD8/Pzn5+cEBASYmJgtLS3BwcFwcHDk5OT19fXr6+vz8/NnZ2fg4ODu7u6enp7S0tKJiYnMzMykpKTAwMDY2NhXV1esrKxdXV2ysrIhISFiYmIyMjK5ubmvr69OTk57e3uRkZE5OTkXFxcPDw9KSkpCQkKAgIAlJSU+Pj5F2tPGAAALWUlEQVR4nO1dCXPyNhC1FRPA3BBuQiBArv//A2vZSNqV1gcNyM43+2Y6bY0S9LzS3lKCgMFgMBgMBoPBYDAYDAaDwWAwGAwGg8FgMBgMBoPBYDAYDAaDwfAN0Zu095vNfjaM657KnSFEEPTb04/Q4Hv3spCf1D21e0Hsl6GL7dew7ondA4mURlOCXoafed3zuwPifH7pcm3XPcHfYiNpREUcl9265/gbxOtCAV7Zr/6uypmU8ssw+JsERbZCgazy8Tr6k1J8sWg8H98mvVG/Pxq2W/bqPff+IMWEYGQEd2lh4ydmA0wxkeJwNt+sEpen+zfIoiX6TNm91E7qd7B9BuO3nbde0HD9M4E7b0WNkL4AliPeqj/jnu9J34I+mOqhYKZ7WvNcMVhIp7aZklwbgUwz1zsHJQZl/eRx0rcAbMKXoGA/ifdigvIFiaIXVBdis6Necgcl095cSgkmWmrRQI1jnO1pwajFJ7InOYiK3lJdGOnJHegBUnuMOpCGwxT9/7FpUjQi7OcNES1HfsvxrBsnm66fuDx2wLzzOf1yxFoMm7wh860lpXUbp276VlagWRQ3iuBnzoDhwRJRhwoRhzvzFqKw06SFelCzmpGzio/WAj1Q6RppIRYns0/D1qOnXRHDsVldr+7Hwo04votSNdBcThogRbH6gXOnvNH2q0WwJQr8ARG0tRTDc+1JVsc/cWfUQ2FhslI7o8LfmPyzMJux86iZV4S9+sID/ly4WbfPRdkvTTh24TqtEVIpWEbbVg1vEdYw532FADBZqMY3Jza2N4xtASYwiVCpFydoiyZE3yvqDZGsDvVe6ssf76hEk4l7RBrqIguxuyW6XarXcrr/1Csh/iQkiBTNE5JestycHXUVKB0n9fSPzh7DoASxZQCuotqCyVpupmtGEma99+Uuz8vTWroedYoJfimd+mxGjNCIaUyJqhXSwk0hqIXhDQdr9spGA4ZgkeZUKdpn9bncoC5/bWf2D+ORiy88e1HM8JmsNC30W4pylKw2ir6XqQjmgOA4fZbHMMoL1vvwJUls5/I3Y56qfrx9HBkaMZjYJNte+TI8kvGw4wuFVLTRUh/5zqEOjB1U+yuX4UD+p70CZ99qfWKOX5ZK0Y6NZ3uxMFPSb72YIYD0OZUnTuSjsEnRGWbPWSnTXWFebWWGyBN/nWC/PKF8ApZDBKqqUZS8uz9mejrAy67GUODSTSqw7sES5mCkLKfQRsmvMtVK/gc8rCjDCQhG9KZrw/qTREvvW1XDWT6Qj4OhnsgQaJBKDHudUBNcQsVpBylbaeLlLz9eH3w8mBSC3jhTqCKrMATZgC3yAZIo5BhiJJZDLlWVPz48lhOGLjqgVEQ5w73ZbGdLNUouQztUSRexWqXrh1JCczGmAm/+MoYL2N526FJe6H5rRZMrs+ePjyRlQW8ZbISLGTqLkHB0RJrzN5CWY6F00PtjSSGoImiEHxcyxIok+3nShvcGzrgMbw9khCECepEWMWxvzZRB5emZ9MQmp5CCx3xbT32nFbHnMjyAXE2np6UkHw3IWvaKqi16DIG1orHeakkEDPyxGZASmXmTjpzF8uQxta+7KKy0dRnDUNbcrs7YG3hKRO8i6NqFxKlHhiv1pdbzMoZTOEUBpPRJtkVbjpzP8oyOXO0pFTLc2WkaFUBJnonlIOaPQmSfZUSt+K3nRQyl1nRmqIJgydGxHMLunBrfnUgubmVY0FMBpLQlLQcMtCbe2mtu3oeftKKXfRnxR7YbpeVYO+nGZMACuLKxr4V6gy7tXrdQPmDnSZoytgd0LyaavBOBUtxgD29kGF6c7L6AZURfpzS0T2Ptrt8zTD1t/LmA7Zzewnw1IavV5RcMJ0BpdpzE6FivU1+NbtrdwF/3C4a9YALKPNguJOpGB5ZO1u5B0O+Ujg+3xvR1S+eVMZT+98pQ3FpFDpOd9ZT41l+Ipz5Um8kERbcwDGJQxljGxChHvI+DztPAVyquq1fKV7loNzFM3pFa/1H4gXac9o18Vbt1rg3nTkYgk5S52TcyDEyobO0A3Y7j6aiUyZfCL0xUAthLaXvijQzlW6HXo67l+cplHJSuOVjqW+4lpdqTcPdmGRqGuClHV7v95PaFrlsQPvUQhK6d2b0Y6mXqre3E7LiF4/GbvXTFPRjqgMZXlAgOS9gns7I+y+jODPWq8XaCWFmoSB4+Q5CF+P7x3jLUzrC3UnBsxHQZEqEpTOGfcjotZXz4WZGhLgX76nCDykZmyyyGkvFe+QVRjisClnM5Q3HR3+UN70qKMo9Nht+gBnGeU3karZIqMFRjc08B3B0iMBFPlGOJeyD6c/pIoFm5QYb+GJpYIqN4omsQP2bEEXrTab40qs7Q+z6UMjyGGAPyRC/Mbr/onPcK/+gNutRnQ7Rt2MPwnUqqiaufLiV2vUdhZleXbrCHHm8p6IUuzqq9AKELGvXXXVx7WldkqDOrHo9egG0I8EGmUmaqBiFJmcFJLF/V4quf8tkOTTTepZqjU9Smh0pm0mu/NbbwWc0/Xr/zeX4OMcaCWKqx3WqZ1fErMtQLxqex2F2/c22dmYnIi1lE1tulIc2j6ZYpYSj0l4U+zz/DfrPRjjiVhsSY/M8Y3LOgrVo1GWqtBrvMHg4VIspqgnDbC+w+UbiWweyrMTyqp15bMBFDgU17qlF0I4PIjlZG1w/Qoa5KDE1eqPA82L2hwiOt3ZzzW6+ZI4fDxU/slFRgKMzRGV857wzKcQbf+mS3F2QXI7yExkzYwU85QwHskt8rwlTcgM6VzV4tmzeNZ6DjwG0tKWMoQBud71PPOvrDj6kOfCXtJ9dMljKE3qHnm7N0id1aOjhHk0GKlW7x6qSfFazSkXHwfbbUSGgF56ZM7TPpEuS1Xup6hXyGXWNkvh9GJQfaVTxYz0V2rwCCbR2zkToJmssQnswpPVl7d+ibaIiiHu4TXbo6UKaqvvWAHIbyAP8VUR23gKzgZCzA+z1kvdNdoEPYMUwzfDNauZ6rFfpKhhf6uxeZ10NmEoF0JMAaVo+mb2YHJi6vvy5vCK1Q8iqz+8H6vcqhLthjoYUGEIXLem4bMmog966WgFqgM/t6BbCRdU4NH4++/+SrYXvzDATh2u2gOz0MbUR+m9gx3vQkyHvZKMRTSzwn7IlTl5y1a7v5w5wrq2Ks0uvX3qz95bwaHJ9Etoi9A+TbqviMMgOOKH459Q57i36TpsYXRFp8jqpSHO2s2ROnu7t4xPMmqPsORXjgnmoDNnCueCFPd6ODJ4N6LlJAwEe6i6472p+tBToOqBeiN/bzcR8XXkroD/BkxI+dYVNAh7ok6LSxeV+NuuEL3dPZofIMw4HF7yNP82o906ybsHE0uNzjQCme2xconXML1Ss1JsfTrQtiaV2it2y1u315h17XuUOv8AIeo7aacoGZhr0KCzAouEPXLIYiP7ceUHcpUTjlVnATrWlKN40Toew9setPJPIbCxOC5i1FzdqFVzjFMxfT/BOEArWmNPXPJgypv2ShxVLomwtw241M3TdShum9ZbbjiSieC3ywHvAItt4O//wfPLVOSmTpv6IQ+moypehOXsDek2JZ1w85/e6qA7XO6xlMPq1/O5ijWofTI9dIiO5sL+/Jn3TTY0vQHfiyRPQ0vsDrWBt4N3IZRDC0LrY+d1aTXhyLeLTYT1HlmAj5G43r/TIi6H1jFikuF/uJxPxPLFEXgqrUELj81b+RJCp6dYNGm4kyOBezIMiFemmqJ1MZm2LPteqlpo3G5juXX6v2u5DvhEnnYpalxm7/L8gvuOa8xaS1hvbxY5peOv+PUNQYLWbyjyG2J71/jRmDwWAwGAwGg8FgMBgMBoPBYDAYDAaDwWAwGAwGg8FgMBgMBqP5+A+WEnapZxLnfQAAAABJRU5ErkJggg==;" vertex="1" parent="1">
          <mxGeometry x="491" y="101" width="56" height="56" as="geometry" />
        </mxCell>
        <mxCell id="db1EEsWRSnI7m_Rw6AXZ-24" value="WhatsApp Agent" style="text;html=1;align=center;verticalAlign=middle;whiteSpace=wrap;rounded=0;" vertex="1" parent="1">
          <mxGeometry x="379" y="74" width="98" height="30" as="geometry" />
        </mxCell>
        <mxCell id="db1EEsWRSnI7m_Rw6AXZ-25" value="LLM= gpt-3.5-turbo" style="rounded=0;whiteSpace=wrap;html=1;" vertex="1" parent="1">
          <mxGeometry x="373.5" y="115" width="109" height="35" as="geometry" />
        </mxCell>
        <mxCell id="db1EEsWRSnI7m_Rw6AXZ-26" value="Tools" style="rounded=0;whiteSpace=wrap;html=1;" vertex="1" parent="1">
          <mxGeometry x="373.5" y="168" width="109.5" height="32" as="geometry" />
        </mxCell>
        <mxCell id="db1EEsWRSnI7m_Rw6AXZ-28" value="User Message, Phone Number" style="text;html=1;align=center;verticalAlign=middle;whiteSpace=wrap;rounded=0;" vertex="1" parent="1">
          <mxGeometry x="436" y="247" width="102" height="30" as="geometry" />
        </mxCell>
        <mxCell id="db1EEsWRSnI7m_Rw6AXZ-30" value="Create Expense Record" style="rounded=0;whiteSpace=wrap;html=1;" vertex="1" parent="1">
          <mxGeometry x="568" y="140" width="124" height="34.5" as="geometry" />
        </mxCell>
        <mxCell id="db1EEsWRSnI7m_Rw6AXZ-31" value="Query User Expense History" style="rounded=0;whiteSpace=wrap;html=1;" vertex="1" parent="1">
          <mxGeometry x="568" y="201.5" width="127" height="34.5" as="geometry" />
        </mxCell>
        <mxCell id="db1EEsWRSnI7m_Rw6AXZ-32" value="" style="endArrow=classic;html=1;rounded=0;entryX=0;entryY=0.5;entryDx=0;entryDy=0;" edge="1" parent="1" target="db1EEsWRSnI7m_Rw6AXZ-30">
          <mxGeometry width="50" height="50" relative="1" as="geometry">
            <mxPoint x="482.5" y="182" as="sourcePoint" />
            <mxPoint x="532.5" y="132" as="targetPoint" />
          </mxGeometry>
        </mxCell>
        <mxCell id="db1EEsWRSnI7m_Rw6AXZ-33" value="" style="endArrow=classic;html=1;rounded=0;entryX=0;entryY=0.5;entryDx=0;entryDy=0;" edge="1" parent="1" target="db1EEsWRSnI7m_Rw6AXZ-31">
          <mxGeometry width="50" height="50" relative="1" as="geometry">
            <mxPoint x="482.5" y="183" as="sourcePoint" />
            <mxPoint x="532.5" y="133" as="targetPoint" />
          </mxGeometry>
        </mxCell>
        <mxCell id="db1EEsWRSnI7m_Rw6AXZ-34" value="Expense DB" style="shape=datastore;whiteSpace=wrap;html=1;" vertex="1" parent="1">
          <mxGeometry x="781" y="162" width="60" height="60" as="geometry" />
        </mxCell>
        <mxCell id="db1EEsWRSnI7m_Rw6AXZ-36" value="" style="endArrow=classic;html=1;rounded=0;entryX=0;entryY=0.5;entryDx=0;entryDy=0;" edge="1" parent="1">
          <mxGeometry width="50" height="50" relative="1" as="geometry">
            <mxPoint x="693.5" y="156" as="sourcePoint" />
            <mxPoint x="779" y="192" as="targetPoint" />
          </mxGeometry>
        </mxCell>
        <mxCell id="db1EEsWRSnI7m_Rw6AXZ-38" value="" style="endArrow=classic;html=1;rounded=0;" edge="1" parent="1">
          <mxGeometry width="50" height="50" relative="1" as="geometry">
            <mxPoint x="776" y="198.5" as="sourcePoint" />
            <mxPoint x="697" y="221" as="targetPoint" />
          </mxGeometry>
        </mxCell>
        <mxCell id="db1EEsWRSnI7m_Rw6AXZ-39" value="" style="shape=image;verticalLabelPosition=bottom;labelBackgroundColor=default;verticalAlign=top;aspect=fixed;imageAspect=0;image=data:image/jpeg,/9j/4AAQSkZJRgABAQAAAQABAAD/2wCEAAkGBxIHBhAQEhIRFRAXEBYXFRUQFxUQFxUVFRUYFhcVFRcYHSggGBolGxgTITIhJykuLi4uFx8zOD8sNzQwLisBCgoKDg0OGxAQGi0lICU3LTAvLS0tLi0vKy0rLS0tLy8tLS0tLS0tLSsvLS0tLS0tLS0tLS0tLS0tLS0rLS0tLf/AABEIAOEA4QMBEQACEQEDEQH/xAAcAAEAAgIDAQAAAAAAAAAAAAAABgcEBQIDCAH/xABHEAACAQIDAwYKBwUHBQEAAAAAAQIDEgQFEQYHITFBUWFxgRMUFiIycpGxw9IVIyRCgpOhUnOSorIzU2Jjg8HCJUOz0eE2/8QAGgEBAAMBAQEAAAAAAAAAAAAAAAMEBQIBBv/EAC8RAQACAQIEBgIBBAMBAQAAAAABAhEDBAUSITEUUYGRweEyQUIicaHRM2Gx8CP/2gAMAwEAAhEDEQA/ALxAAAAAAAAAAAAAAAAAAAAAAAAMLN81o5LgZV69SNOnHlcud8yilxk30LiexWZnEPLWisZlTe1W9vEY2pKng14ClyeEklKrJdOj1jDs4vrRapoRH5KWpupnpVX+NzKvmE7q1arUevLUnKfvfAnisR2VrXtbvLMyfaXGZLVUqGIqx0+7c5QfbCWsX7Dy1K27w9rq2r2ld273eBT2oj4Gqo08YlravRqJcsqevHXpjzdfHSnqaU16/pf0taL9P2m5EnAAAABCdptvoZdWlSw8Y1Ki4SnL+zi+hacZv2LrNLbcPm8c1+kf5Ze64lXTnlpGZ/wjL2rzTE+dFztfJ4Oimu5uL95d8Htq9J/9UJ326t1if8HlHm3TW/Ij8h74Xa+Ue/288Zu/Ofb6PKPNumt+RH5B4Xa+Ue/2eM3fnPt9HlHm3TW/Ij8g8LtfKPf7PGbvzn2+jyjzbprfkR+QeF2vlHv9njN35z7fR5R5t01vyI/IPC7Xyj3+zxm7859vo8o826a35EfkHhdr5R7/AGeM3fnPt9HlHm3TW/Ij8g8LtfKPf7PGbvzn2+jyjzbprfkR+QeF2vlHv9njN35z7fR5R5t01vyI/IPC7Xyj3+zxm7859vo8o826a35EfkHhdr5R7/Z4zd+c+30eUebdNb8iPyDwu18o9/s8Zu/Ofb6PKPNumt+RH5B4Xa+Ue/2eM3fnPt9HlHm3TW/Ij8g8LtfKPf7PGbvzn2+jyjzbprfkR+QeF2vlHv8AZ4zd+c+30eUebdNb8iPyDwu18o9/s8Zu/Ofb6PKPNumt+RH5B4Xa+Ue/2eM3fnPt9MXMdtMyy2hfVqVIrXRXUoRufQtYcpzbb7WsZx/mf9uq7rd2nGf8R/pX+0O0WJ2ixKniKrnatIR4RjFdUUktXzvlZTitYn+mMLU3taP6py1R65AAHdhMTPBYqFWnJxqQkpRkuVSXFMTGYxLqtpicw9ObIZ7HaPZ6jiVopSjpOK+7Ui9Jrs1Wq6mjOvXlthq0vzVy3Jy7AAEY3hZvLKsiag9KlWVia4OK01lJdenD8Rd2GjGpq9e0dVHiGvOlpdO89EM2UyeHgFXqJNv0E+KSXC7TpZqbjVnPLDG2+lGOaUouKa0XALgFwC4BcAuAXALgFwC4BcAuAXALgFwGPmGPp5dg51qkrYRWrfuS6W3wSD1Se0meVM/zF1Z8IrhThzQj0dr5W/8A4cumqAAduFw08ZiYUqcZTqSkoxjFauTfIkJnHWXURMziGTmFKGCl4GElOa4VKkeMbueFJ88VyOX3nycOXmMz1dWxXpDBOka39wmYNwxmGfInCrFdck4T/pplXcR2le2lukwtwrLgAArre4+ODXN9d8M1+Ffz9Pli8X/h6/Dtyvzcsor/ACof0o61PzlDT8YZNxw6LgFwC4BcAuAXALgFwC4BcAuAXALgFwC4Cp9vto/pbHeBpv7PTlzclSa4OXWlxS73znMpIjCJngAcqcHUqKMU3JtJKK1bbeiSS5W2HsRlMc1w62KypUOH0nXp61pJ6+K0Jr+xg1yVJr0pLm1S4NNxR/XOf0sW/wDyrj9yhhKrAFjbiptbW1lzPBzb7qtLT3sg3H4re0/KV6lNfAAFc73PTwfZW+GbHCv5+nyxeL96evw+5dL/AKfS/dQ/pR1f8pQU/GGTccui4BcAuAXALgFwC4BcAuAXALgFwC4BcBFdv8/+jct8DB6Vqqa1XLCnySl2vkXf0HNpdVj9qqOHYAAsvY3Kaeyezss6xcU6jjpg6UuGspJ2z7ZcWuiKb7K+pab25I9VzSrGnXnt6K7x+MnmGNqVqsnKpOblKT52/cuZLmSRPEYjEKtrTacy6D1yAWduGw9+fYqp+zh4x/jmn/wK+4npELm0jrMrtKi8AAK53ueng+yt8M2OFfz9Pli8X709fhwy+X2Cl+7j/SiS/wCUq9PxhkXHD0uAXALgFwC4BcAuAXALgFwC4BcAuA6sTiY4XDyqTekIxcpPoSWrD2OqmM6zKWbZlUrS+8+C/ZiuEY9y/XUimcpsY6ME8ACa7r9kPKXN/CVY/ZKMk568lSfLGl2cjl1cOch1tTljEd1nb6XNOZ7G9Taf6fz50qb+zUG4Q05JT5Jz7NVaupa840acsZk3GpzWxHaEKJlYAAXZuHwHgsjxNdrjUrqC64048q75yXcVNxPWIaG1riuVnldaAAFdb3PTwfZW+GbHCv5+nyxeL96evwxsBL7DS/dx/pRLf8pVa/jDvuOXRcAuAXALgFwC4BcAuAXALgFwC4BcBCt42bWUYYWL4y0nU0/ZT82Pe1r+FEd5/SSkftACNIAZeU5dUzbMqWHpLWpUmoxXN1t9SWrfUmeWmIjMuqVm04hc+2WMp7vthKeCw70rVIuEZcknrxrVn18dF0OUeZFSkTqXzK/qTGlp4hRvIXGeB4AHwQevTuwuVfQuyWEoNaSVJSn69Ruc13OTXcZ+pbmtMtbTry1iG+OHYAArre56eD7K3wzY4V/P0+WLxfvT1+GFgX9ip/u4+5E1/wApVK9od1xy6LgFwC4BcAuAXALgFwC4BcAuAXAcK+Ijh6EpyekYxcm+hJasEdVO5njZZjmFStLlnLXToXJFdySXcV5nKzEY6MU8AC6ty+zKwOXSzGskp1ItUruFtFcs+q5r2RXSVNe+Z5YaG20+WOaVb7e7RPabaSrWTfgV5lFdFOLej7ZPWXfpzE+nTlrhV1tTnsjpIhAAEh2Byb6d2sw1FrWCn4Sp0eDp+c0+pu2P4jjVty1lNoU5rw9NGe1AAAArre56eD7K3wzY4V/P0+WLxfvT1+GtwUvsdP1I+5Fi35Sp17Q7rjl0XALgFwC4BcAuAXALgFwC4BcAuAi232Y+Ay2NFPzqj4+pHRv2vT9SPUnEYSaUdcq+IEwBvditnpbTbRUsPx8HrfVa+7Si1d2N6qK65I41L8tcpdGnPbC2972exyPZiODpaRnXj4NKPCyhFJT06E1pDsk+graNea2ZXdxflpiP2ocuM0AAALs3G5F4rlVXGzXnVpWU9f7uD4tds9f4EVNxbM4aG1pivN5rPK60AAAFdb3PTwfZW+GbHCv5+nyxeL96evw1GEl9kp+pH3Fm3eVKvaHdcePS4BcAuAXALgFwC4BcAuAXALgFwFYbU47x/O6kk/Ni7I9keX2u595VvOZWqRirUnDoAvzc/s6sm2b8ZqLSriEptvhbSSfg11apuX4l0FLWvzWx5NLb6fLXPmqPbvP/ACk2mrV0/qk7KX7qDdr725S/EWtOvLXCnrX575R87QgADOyTK551m9HDU/TqTUU+W1cspPqUU33HlrcsZd0rzWiHqXLsFDLsBToU1pTpwjCK6orRd5nTOZy1ojEYZB49AAACut7np4PsrfDNjhX8/T5YvF+9PX4aTCy+zQ9Re4tW7yo17Oy48elwC4BcAuAXALgFwC4BcAuAXAYec43xHK6tTnUHb6z4R/Vo5vOIy6pGbRCrCmuAeN/sNkHlJtNRw7X1et9XqpQ0u9rcY/iONS3LXKbRpz2wuLe7nyyTZV0YNKriNaUUuGlNL6ySXRa1H8aKujXmtld178tHn4uswAAALk3H7N+Cw9TMai4z1p0deaCfnz75JRXqvpKu4v8AxX9rp4jmla5WWwAAAAV1vc9PB9lb4Zr8K7X9Pli8X709fhH8NL7PD1V7i7buoR2dlx49LgFwC4BcAuAXALgFwC4BcAuAi+3WLtw1KkvvScn2R4L9X+hBrz0iE+hHeUNKycAvPcnkPiOQzxcl9ZXfm681KDaXtlc+tWlPXtm2GjtqYrnzV1vRz76d2sq2vWjR+pp9Dtbvl3y149CiT6NeWqtuL81/7IiSq4AA2uy+Rz2izylhYaq6XnyX3Ka4zn3Lk62kc3tyxlJpU57Yen8DhIYDB06NOKjThBRjFc0YrRIz5nM5asRiMO88egAAAArre56eD7K3wzX4V2v6fLF4v3p6/CNYeX1EfVXuL1u7Ojs7Ljx6XALgFwC4BcAuAXALgFwC4BcBA9rcR4fOZLmhGMf+T/VlPWnNlzSjFWmIkjOyPLJZznFDDQ9KpUUdehP0pd0dX3HlrcsZd0rzWiHoXbPM4bI7FTdLSLjSjRoJc0mrIaeqk5fhZRpXns0tS0Uo82F9lgeAAC/N0Gy30LknjNSOmIrpPjywpcsI9TfpPtSfIUta/NOIaW30+WuZ7p+QrAAAAAAFdb3PTwfZW+Ga/Cu1/T5YvF+9PX4RahL6mPqr3F+e7Njs53DD0uGAuGAuGAuGAuGAuGAuGAuGAuGAuGBxq1VSpSk+RJt9iWrPJ6Rl7HXohe1FBLGxrR4wqxUk10rTX9LX3sp60dcx+1vRnpif00pClWluLyXw+Z18bJcKUfB0/XmtZNdajov9RlfcW6YXdrTvZw36Zz4xm9DBxfm0oeEmv8yp6KfWocf9QbevTLzdX6xVWBYUwDOynJ8RnVezD0alWXPYtVH1pcke9o8taK93daWt2hZeyW6OrTx1KtjZ0rIyUnQhrUc9OKjOXBJa6apXargV768YxVb09ric2XEVVwAAAAAABXW9z08H2Vvhmvwrtf0+WLxfvT1+ERpS+qj2L3GjPdmR2c7jx6XALgFwC4BcAuAXALgFwC4DUbT4rwOVuK5ZtR7uV/otO8h15xT+6bQjNs+SO06/jOTTpP0qbU4eq3pJd2upWic0x5LExi+fNrSJI9HbuMuWQ7C0HPzXKm69Rvhpf5/HshavwlDVnmu1dGvLSHn/AD3M5ZznNfEy11qVZS0fNFvzY90bV3F6teWMM3UtzWmXbkeQYnP67hh6Up6elL0YQ65zfCPvPLXivd7TTtfsm+W7NZRs/wCfmONp16y/7GGcpwi+iVmspPttXUQze9vxhYrp6dPylv8AC7zaU8TSwWWYBtylZTU3HDwT/atgpeakm3ycE2cToz3tKWNeJnlpCz6KkqUbmnPRXOKaTenHRNtpa9ZXWXMAAAAAAACut7np4PsrfDNfhXa/p8sXi/enr8IbTl9WuxGlLLhyuAXALgFwC4BcAuAXALgFwC4DU55GOOwtSmv7SmlNL2/7a/oQa0RaJj9wn0pmsxP6lEqU7J69TT7GtH+jZRiV2YZ2z2WvOM9w2G/vK0YvT9nXz33RufccWnFZlJp15rRC9N7ea/ROxVSnHhKs40Ypc0ZcZ91kZLvRT0a5u0Ne3LR5+oVFTnq4qXQpNpd+mjftRelmxOGRjM0rY2koTqS8GvRpx8ynH1acdIrt0PIrEPZ1LSw+Q9cry3P7H/RWA8erR0xFWP1cZLjTpPjr1SlwfUtF0lPW1MziGht9LljM91kkCyAAAAAAAAV1vc9PB9lb4Zr8K7X9Pli8X709fhCIPzF2GnLKfbgFwC4BcAuAXALgFwC4BcAuAic8wdDPZ1ea9xa6Yrzf9tTPnU5dWbL8aedOKsHGUlRxU4r0U+HqvjH9GiK8YtMJaTmsSnu5HLfG9q512vNoUW0+idTzF/L4UrbicVwubWubZd+/PNvGdoKOFT82jSul+8q8dH2QUH+I829cRk3VszFValhUAJ7up2N8oMz8YrR+yUpLg+SrUXFQ64rg33LnZDranLGI7rW30uaeaey/ik0AAAAAAAAABXW9z08H2Vvhmvwrtf0+WLxfvT1+EDjLzUarJfbgFwC4BcAuAXALgFwC4BcAuAiGbUPF8fNczdy7Jcffqu4y9anLeYaWjfmpEsac70ulLT2cn6aLuI5nKSIwu7cZgPF9mq+Ia0dWu0n/AIKUUl/M6hS3E/1YaO1rimVRbT5n9MbRYrEa6qpWk4+onbD+RRLVIxWIUtW3NaZas6Rtzsls7V2nzmGHp8Fy1J8qp00+Mn18yXO+9nF7xWMpdLTm84elspy2lk+XU8PRjbShHSK97b523q2+dsoTMzOZalaxWMQzDx6AAAAAAAAAK63ueng+yt8M1+Fdr+nyxeL96evwr9SNZjlwC4BcAuAXALgFwC4BcAuAXAabaOlrCE+huL7+K9z9pT3dekWXNrbrNWiKK4vxVPJfc4mvNn4ktNOVVcS+XulU17il+Wq0/wANJQfIi6zVi7Fbra2cRjXxblQw70aglpVqLsf9mut8epcpBqa8R0ha0ttM9bLkyPIsNkGF8HhqUKcXpc48ZSa5HOT4yfLysq2tNu67WsVjENkcugAAAAAAAAAArre56eD7K3wzX4V2v6fLF4v3p6/CvTXY4AAAAAAAAAAAAGHm1PwmXz6lr7OP/sh16505S6FsakI7gsM8ZjKdJcs6kYLtnJRXvMmZxGWrWMzELl35Y1YTZ3C4WPC+rrp/gox5PbKHsKu3jNple3U4rhw3Ybu44SlDG4yGtZ6SpUZrhTXNOafLPnS+728jV1c9IeaGhj+qy0yutgAAAAAAAAAAAAV1vc9PB9lb4Zr8K7X9Pli8X709fhXprscAAAAAAAAAAAADjON8GuZpr2nkxmMETictfu9wfje3GBpvmxCn30U6vvgYWr0rLe0IzeFyZhka2h3hwq1FrhsHRhpF8VLE1G56PqjDwUtOlx5ipFuWmPNfmvNfM/pNSJKAAAAAAAAAAAAAArre56eD7K3wzX4V2v6fLF4v3p6/CvTXY4AAAAAAAAAAAAADO3TYW/eLJ/sUq0/bbH/mYW96TMf9t7YdcT/0vWjRVFya5ZScpPpeiXHsSiuxIzmo7AAAAAAAAAAAAAAAK63ueng+yt8M1+Fdr+nyxeL96evwr012OAAAAAAAAAAAAAAkO5mldthjp/s0NP4qkflMHfT/AFT/AHfQcOj+n0XMZ7SAAAAAAAAAAAAAAAIXvSy94nJqdaK18FPzuqE+DftUDS4bqRXUms/v4ZnFNKbacWj9f+Sqw3GAAAAAAAAAAAAAAAlm5SP/AF3M31Uv1dQwN/8Am+h4d/xrbKDRAAAAAAAAAAAAAAAOFalGvSlCSTjJNST4pprRp9R7EzE5h5MRaMSqzaXYStgK0p4aLq0eVRXGpDq0++utcfebm339LxjU6T/if9MDc8OvSc6fWP8AMf7RCtTlQnbOMoy6JJxfsZoRMT1hm2iaziejhqe4eZg1GDMGowZg1GDMGowZg1GDMGowZg1GDMGowZg1GDMGowZhMNy/DO8z9Wg//IYPEP8Ak/8Av+n0PDZzprYM9pAAAAAAAAAAAAAAAAAAAAAAAAAAAAAAABDMpj4DenmK/vMFh6n8DdMkn/jhFH5ymZGlAAAAAAAAAAAAAAAAAAAAAAAAAAAAAAACH49eKb0sHU/v8vrUe2VGpGr7dJMkjrpyinpqRKYEaUAAAAAAAAAAAAAAAAAAAAAAAAAAAAAAAIlt+vE3l+O5sPjqd76KNf6mo/54+wk0+uYR6nTEpaRpAAAAAAAAAAAAAAAAAAAAAAAAAAAAAAAAjm8P/wDF4z90v6onen+UI9X8JSKHorsOEj6AAAAAAAAAAAAAD//Z;" vertex="1" parent="1">
          <mxGeometry x="829" y="209" width="45" height="45" as="geometry" />
        </mxCell>
      </root>
    </mxGraphModel>
  </diagram>
</mxfile>
